<svg xmlns="http://www.w3.org/2000/svg" version="1.1" xmlns:xlink="http://www.w3.org/1999/xlink" xmlns:svgjs="http://svgjs.dev/svgjs" width="2000" height="1500" viewBox="0 0 2000 1500"><rect width="2000" height="1500" fill="#4f2730"></rect><g transform="matrix(0.75,0,0,0.75,250,0.0006393194470888375)"><svg viewBox="0 0 280 280" data-background-color="#4f2730" preserveAspectRatio="xMidYMid meet" height="2000" width="2000" xmlns="http://www.w3.org/2000/svg" xmlns:xlink="http://www.w3.org/1999/xlink"><g id="tight-bounds" transform="matrix(1,0,0,1,0,-0.000030318290782815893)"><svg viewBox="0 0 280 280" height="280" width="280"><g><svg viewBox="0 0 280 280" height="280" width="280"><g><svg viewBox="0 0 280 280" height="280" width="280"><g id="textblocktransform"><svg viewBox="0 0 280 280" height="280" width="280" id="textblock"><g><svg viewBox="0 0 280 280" height="280" width="280"><g transform="matrix(1,0,0,1,86.87270020761322,74.00336708925556)"><svg viewBox="0 0 106.25459958477356 131.99326582148888" height="131.99326582148888" width="106.25459958477356"><g id="icon-0"><svg xmlns="http://www.w3.org/2000/svg" data-name="Layer 1" viewBox="14.579986266982713 6 70.84001373301729 88" x="0" y="0" height="131.99326582148888" width="106.25459958477356" class="icon-xg-0" data-fill-palette-color="accent" id="xg-0"><path d="M82.42 6H37A3 3 0 0 0 35 6.81L15.52 25.06a3 3 0 0 0-0.94 2.19h0V91a3 3 0 0 0 3 3H82.42a3 3 0 0 0 3-3V9A3 3 0 0 0 82.42 6ZM34 15.92v8.32H25.16ZM79.42 42.33V88H20.58V30.25H37a3 3 0 0 0 3-3V12H79.42Z" fill="#fea498" data-fill-palette-color="accent"></path><path d="M50 54.87A14.76 14.76 0 1 0 64.76 69.62 14.77 14.77 0 0 0 50 54.87Zm3.5 6.74a8.8 8.8 0 0 1 4.28 4H53.5ZM50 78.38a8.75 8.75 0 0 1-2.5-17.14v7.39a3 3 0 0 0 3 3h8A8.76 8.76 0 0 1 50 78.38Z" fill="#fea498" data-fill-palette-color="accent"></path><polygon points="39 36.5 33 36.5 33 43.25 28.82 43.25 28.82 49.25 33 49.25 39 49.25 47 49.25 53 49.25 61 49.25 67 49.25 70.18 49.25 70.18 43.25 67 43.25 67 36.5 61 36.5 61 43.25 53 43.25 53 31.5 47 31.5 47 43.25 39 43.25 39 36.5" fill="#fea498" data-fill-palette-color="accent"></polygon></svg></g></svg></g><g id="text-0"><path d="M20.142 104.985l-2.104-0.808 1.259-3.278-12.133-4.661-1.361 3.542-2.094-0.805 2.951-7.681 16.308-6.906-9.805-3.767-1.36 3.542-2.094-0.804 3.853-10.029 2.093 0.804-1.36 3.542 14.237 5.469-1.083 2.818-18.455 7.587 11.438 4.394 1.361-3.542 2.104 0.808zM28.673 85.524l1.143-2.975-14.237-5.469 1.361-3.542-2.358-0.906 0.203-0.528 2.857 1.098-1.361 3.542 14.237 5.469-1.346 3.503zM8.019 89.716l0.267-0.694 11.743-5.168 0.753 0.289zM13.522 83.926l-0.499-0.192 0.846-2.202 0.499 0.192zM7.527 99.532l-0.499-0.191 1.344-2.01v0zM20.01 96.704l-8.865-3.406 0.781-0.306 8.287 3.183zM21.362 104.555l3.815-9.931-2.279-0.876 0.203-0.528 2.778 1.067-4.018 10.46z" fill="#ffdbe7" data-fill-palette-color="primary"></path><path d="M27.853 70.425v0c-0.818-0.562-1.495-1.248-2.033-2.058-0.533-0.816-0.876-1.717-1.028-2.704-0.143-0.989-0.078-2.046 0.196-3.172 0.283-1.128 0.831-2.282 1.642-3.463v0c0.764-1.111 1.596-2.002 2.498-2.671 0.891-0.668 1.829-1.113 2.813-1.336 0.984-0.223 1.993-0.216 3.026 0.02 1.035 0.245 2.074 0.726 3.117 1.442v0l-8.045 11.705c0.6 0.311 1.215 0.471 1.845 0.48 0.636 0.013 1.255-0.104 1.857-0.352 0.608-0.243 1.186-0.597 1.733-1.06 0.538-0.461 1.018-1 1.442-1.616v0c0.348-0.507 0.66-1.047 0.936-1.621 0.28-0.579 0.509-1.147 0.687-1.703 0.178-0.556 0.306-1.074 0.383-1.556 0.077-0.482 0.087-0.886 0.031-1.212v0l0.303-0.44 1.932-0.275c0.133 1.262-0.016 2.584-0.449 3.965-0.432 1.382-1.12 2.758-2.062 4.129v0c-0.823 1.198-1.698 2.157-2.625 2.876-0.931 0.725-1.871 1.224-2.821 1.495-0.944 0.275-1.875 0.335-2.794 0.178-0.922-0.151-1.784-0.501-2.584-1.051zM31.617 67.632l7.825-11.385c-0.107-0.091-0.226-0.189-0.356-0.296-0.129-0.097-0.27-0.199-0.426-0.306v0c-0.657-0.451-1.332-0.814-2.026-1.087-0.69-0.279-1.38-0.465-2.071-0.558-0.691-0.093-1.38-0.096-2.067-0.009-0.683 0.081-1.339 0.258-1.967 0.53v0c0.55-0.368 1.149-0.648 1.797-0.838 0.644-0.185 1.324-0.26 2.038-0.227 0.711 0.039 1.454 0.198 2.229 0.477 0.779 0.273 1.575 0.688 2.387 1.246v0c0.063 0.044 0.139 0.1 0.227 0.169 0.088 0.069 0.188 0.146 0.3 0.231 0.111 0.085 0.223 0.175 0.336 0.269 0.113 0.095 0.221 0.19 0.324 0.287v0l-7.522 10.945c0.347 0.026 0.783-0.072 1.31-0.296 0.528-0.213 1.097-0.573 1.707-1.078v0c-0.265 0.386-0.561 0.717-0.886 0.994-0.322 0.271-0.658 0.489-1.01 0.654-0.347 0.16-0.707 0.264-1.08 0.313-0.363 0.047-0.72 0.035-1.069-0.035zM28.635 67.122l6.163-8.967c-0.617-0.237-1.225-0.371-1.823-0.401-0.593-0.026-1.159 0.051-1.699 0.232-0.543 0.186-1.056 0.47-1.538 0.851-0.486 0.387-0.929 0.871-1.329 1.452v0c-0.427 0.622-0.734 1.247-0.919 1.874-0.191 0.623-0.269 1.231-0.235 1.822 0.03 0.597 0.165 1.16 0.403 1.689 0.235 0.534 0.56 1.017 0.977 1.448zM29.235 65.194l-0.368 0.535c-0.436-0.723-0.625-1.515-0.568-2.374 0.061-0.866 0.368-1.701 0.922-2.508v0c0.23-0.334 0.477-0.639 0.743-0.914 0.27-0.281 0.553-0.515 0.85-0.7 0.291-0.19 0.587-0.33 0.887-0.421 0.306-0.087 0.602-0.117 0.888-0.089v0c-0.595 0.236-1.133 0.557-1.616 0.963-0.487 0.412-0.928 0.906-1.323 1.481v0c-0.463 0.674-0.731 1.359-0.803 2.056-0.076 0.703 0.053 1.359 0.388 1.971zM33.678 72.368v0c1.05-0.381 2.062-0.97 3.034-1.768 0.975-0.789 1.903-1.825 2.786-3.109v0c0.859-1.25 1.523-2.519 1.993-3.807 0.46-1.286 0.699-2.572 0.718-3.857v0l0.55-0.079c-0.011 1.459-0.256 2.834-0.736 4.124-0.48 1.29-1.133 2.537-1.96 3.74v0c-1.077 1.566-2.156 2.736-3.239 3.51-1.089 0.77-2.137 1.185-3.146 1.246z" fill="#ffdbe7" data-fill-palette-color="primary"></path><path d="M47.896 54.393l-2.72-2.75 2.057-2.034c0.449 0.096 0.943 0.084 1.483-0.036 0.534-0.125 1.084-0.335 1.649-0.628 0.56-0.288 1.13-0.656 1.711-1.102 0.581-0.436 1.139-0.92 1.676-1.451v0c0.447-0.442 0.793-0.853 1.037-1.232 0.249-0.374 0.412-0.717 0.488-1.028 0.076-0.311 0.077-0.588 0.004-0.83-0.073-0.252-0.205-0.476-0.396-0.669v0c-0.398-0.403-1.067-0.428-2.008-0.078-0.936 0.355-2.181 1.149-3.735 2.38v0c-1.032 0.824-1.948 1.459-2.745 1.905-0.803 0.44-1.521 0.723-2.155 0.847-0.633 0.125-1.194 0.104-1.682-0.061-0.483-0.161-0.919-0.438-1.307-0.83v0c-0.339-0.343-0.566-0.786-0.682-1.331-0.116-0.544-0.087-1.162 0.085-1.852 0.177-0.696 0.515-1.447 1.013-2.255 0.499-0.808 1.193-1.651 2.082-2.531v0c0.283-0.28 0.596-0.55 0.939-0.81 0.337-0.255 0.687-0.488 1.049-0.698 0.362-0.201 0.726-0.379 1.092-0.535 0.366-0.146 0.72-0.255 1.062-0.328v0l-0.56-0.566 2.147-2.123 2.668 2.699-2.147 2.122c-0.276-0.13-0.624-0.174-1.044-0.132-0.415 0.047-0.851 0.158-1.307 0.334-0.461 0.18-0.911 0.405-1.353 0.674-0.446 0.274-0.828 0.569-1.146 0.883v0c-0.417 0.413-0.783 0.833-1.097 1.261-0.319 0.433-0.561 0.839-0.726 1.219-0.165 0.38-0.251 0.725-0.257 1.036-0.007 0.311 0.083 0.561 0.27 0.751v0c0.167 0.169 0.384 0.264 0.65 0.285 0.262 0.016 0.596-0.058 1.002-0.224 0.406-0.166 0.904-0.437 1.495-0.814 0.585-0.372 1.28-0.872 2.083-1.501v0c1.077-0.829 2.037-1.473 2.88-1.933 0.843-0.47 1.605-0.772 2.288-0.906 0.678-0.139 1.285-0.121 1.823 0.055 0.543 0.181 1.045 0.505 1.506 0.972v0c0.334 0.338 0.559 0.769 0.675 1.293 0.111 0.529 0.095 1.12-0.047 1.771-0.147 0.646-0.428 1.332-0.842 2.056-0.424 0.724-1.011 1.457-1.762 2.199v0c-0.477 0.472-0.944 0.899-1.4 1.282-0.457 0.373-0.921 0.709-1.392 1.007-0.471 0.299-0.952 0.558-1.442 0.778-0.49 0.22-1.013 0.412-1.567 0.577v0l0.751 0.76zM51.554 39.19l-0.376-0.38 2.378-2.351-2.941-2.974 0.403-0.398 3.316 3.354zM44.071 43.891v0c-0.069-0.109-0.07-0.27-0.005-0.481 0.07-0.207 0.185-0.449 0.345-0.725 0.16-0.266 0.354-0.546 0.583-0.842 0.229-0.295 0.478-0.575 0.746-0.84v0c0.229-0.226 0.482-0.442 0.76-0.648 0.278-0.206 0.553-0.385 0.826-0.537 0.278-0.157 0.548-0.276 0.81-0.358 0.267-0.087 0.507-0.123 0.719-0.107v0c-0.218 0.088-0.456 0.215-0.714 0.381-0.258 0.167-0.511 0.348-0.759 0.544-0.253 0.191-0.491 0.388-0.714 0.589-0.223 0.191-0.41 0.361-0.559 0.508v0c-0.542 0.536-0.982 1.025-1.32 1.468-0.343 0.448-0.583 0.797-0.718 1.048zM43.289 48.571v0c0.42 0.057 0.852 0.052 1.297-0.015 0.445-0.077 0.923-0.22 1.433-0.429 0.51-0.219 1.06-0.518 1.65-0.895 0.59-0.377 1.238-0.84 1.943-1.39v0c0.645-0.51 1.221-0.937 1.726-1.28 0.501-0.348 0.94-0.615 1.317-0.8 0.382-0.191 0.708-0.307 0.98-0.35 0.272-0.043 0.507-0.014 0.704 0.085v0c-0.232 0.043-0.475 0.121-0.728 0.233-0.248 0.107-0.54 0.269-0.877 0.484-0.337 0.216-0.742 0.497-1.213 0.846-0.466 0.343-1.04 0.777-1.72 1.302v0c-1.395 1.094-2.622 1.836-3.681 2.225-1.05 0.389-1.994 0.384-2.831-0.016zM49.08 54.608l2.378-2.351-0.413-0.418c0.267-0.097 0.587-0.246 0.959-0.446 0.367-0.205 0.763-0.445 1.19-0.72 0.427-0.284 0.858-0.603 1.295-0.956 0.447-0.353 0.876-0.734 1.289-1.142v0c0.825-0.816 1.479-1.645 1.963-2.487 0.484-0.842 0.807-1.648 0.97-2.418 0.162-0.77 0.164-1.484 0.005-2.142-0.149-0.658-0.448-1.213-0.895-1.665v0c-0.182-0.184-0.356-0.34-0.524-0.47-0.172-0.134-0.352-0.247-0.539-0.337-0.192-0.095-0.399-0.17-0.621-0.226-0.222-0.056-0.471-0.099-0.748-0.13v0c1.103-0.275 2.046-0.018 2.827 0.772v0c0.526 0.532 0.878 1.161 1.056 1.889 0.184 0.732 0.192 1.516 0.024 2.349-0.173 0.829-0.521 1.694-1.045 2.596-0.519 0.896-1.221 1.782-2.105 2.657v0c-0.328 0.324-0.673 0.636-1.035 0.935-0.362 0.299-0.727 0.577-1.095 0.831-0.362 0.26-0.719 0.49-1.071 0.691-0.357 0.206-0.691 0.369-1.003 0.491v0l0.324 0.328-2.795 2.764z" fill="#ffdbe7" data-fill-palette-color="primary"></path><path d="M65.497 38.395l-2.146-3.218 2.407-1.605c0.423 0.18 0.91 0.263 1.463 0.247 0.548-0.021 1.128-0.122 1.738-0.302 0.605-0.176 1.235-0.428 1.89-0.756 0.653-0.318 1.294-0.686 1.921-1.105v0c0.523-0.349 0.941-0.686 1.253-1.012 0.316-0.32 0.541-0.625 0.675-0.916 0.134-0.291 0.188-0.562 0.162-0.814-0.023-0.262-0.111-0.506-0.261-0.732v0c-0.314-0.471-0.966-0.624-1.957-0.46-0.986 0.171-2.36 0.712-4.119 1.626v0c-1.171 0.613-2.19 1.061-3.058 1.346-0.872 0.279-1.631 0.42-2.277 0.422-0.645 0.002-1.192-0.125-1.639-0.381-0.444-0.25-0.819-0.605-1.125-1.064v0c-0.267-0.401-0.406-0.88-0.416-1.436-0.01-0.556 0.136-1.157 0.436-1.802 0.306-0.649 0.781-1.323 1.424-2.021 0.643-0.698 1.485-1.394 2.526-2.088v0c0.331-0.221 0.69-0.426 1.076-0.616 0.38-0.186 0.767-0.348 1.163-0.486 0.393-0.128 0.785-0.234 1.174-0.316 0.388-0.074 0.756-0.113 1.105-0.12v0l-0.442-0.663 2.512-1.674 2.105 3.157-2.512 1.675c-0.246-0.18-0.58-0.29-1-0.329-0.417-0.033-0.865-0.007-1.346 0.079-0.486 0.089-0.972 0.224-1.457 0.404-0.49 0.184-0.922 0.4-1.293 0.648v0c-0.488 0.326-0.927 0.669-1.317 1.029-0.395 0.364-0.71 0.717-0.945 1.059-0.234 0.341-0.385 0.664-0.45 0.968-0.066 0.304-0.025 0.567 0.122 0.788v0c0.132 0.198 0.327 0.332 0.584 0.404 0.254 0.066 0.596 0.056 1.026-0.029 0.43-0.085 0.971-0.257 1.622-0.515 0.645-0.254 1.423-0.613 2.332-1.076v0c1.215-0.609 2.28-1.058 3.195-1.349 0.917-0.3 1.723-0.452 2.419-0.454 0.692-0.008 1.285 0.126 1.779 0.401 0.498 0.281 0.929 0.695 1.294 1.242v0c0.264 0.395 0.402 0.861 0.415 1.398 0.008 0.541-0.12 1.117-0.383 1.73-0.267 0.607-0.673 1.226-1.218 1.857-0.554 0.63-1.27 1.238-2.149 1.823v0c-0.558 0.372-1.098 0.703-1.619 0.992-0.519 0.279-1.039 0.52-1.558 0.724-0.519 0.204-1.041 0.366-1.564 0.488-0.523 0.122-1.073 0.211-1.648 0.268v0l0.593 0.889zM71.985 24.167l-0.297-0.445 2.782-1.855-2.32-3.479 0.471-0.314 2.617 3.924zM63.743 27.357v0c-0.047-0.12-0.017-0.278 0.088-0.474 0.109-0.19 0.267-0.405 0.476-0.645 0.207-0.231 0.452-0.469 0.733-0.716 0.281-0.246 0.579-0.474 0.892-0.683v0c0.267-0.178 0.557-0.342 0.87-0.491 0.312-0.149 0.616-0.272 0.912-0.37 0.302-0.101 0.59-0.167 0.864-0.197 0.279-0.035 0.521-0.024 0.727 0.032v0c-0.231 0.045-0.488 0.124-0.774 0.238-0.285 0.114-0.568 0.244-0.849 0.39-0.285 0.14-0.556 0.287-0.814 0.442-0.256 0.145-0.471 0.276-0.645 0.392v0c-0.634 0.423-1.159 0.819-1.576 1.189-0.422 0.374-0.724 0.672-0.904 0.893zM62.084 31.802v0c0.401 0.136 0.827 0.213 1.276 0.232 0.452 0.01 0.948-0.04 1.488-0.148 0.543-0.118 1.14-0.306 1.791-0.564 0.651-0.258 1.375-0.589 2.172-0.994v0c0.731-0.378 1.377-0.687 1.939-0.928 0.558-0.246 1.04-0.425 1.445-0.535 0.411-0.114 0.754-0.167 1.029-0.157 0.275 0.01 0.5 0.082 0.674 0.218v0c-0.236-0.002-0.489 0.028-0.759 0.09-0.264 0.058-0.581 0.161-0.953 0.308-0.372 0.147-0.823 0.347-1.352 0.599-0.523 0.248-1.169 0.565-1.936 0.951v0c-1.578 0.808-2.924 1.303-4.038 1.483-1.105 0.182-2.03-0.003-2.776-0.555zM66.619 38.831l2.782-1.855-0.325-0.488c0.281-0.045 0.623-0.13 1.026-0.256 0.399-0.132 0.834-0.292 1.305-0.48 0.473-0.198 0.957-0.428 1.454-0.692 0.506-0.262 1-0.553 1.482-0.875v0c0.965-0.644 1.766-1.333 2.402-2.067 0.636-0.735 1.107-1.464 1.412-2.189 0.306-0.725 0.444-1.426 0.413-2.102-0.021-0.674-0.208-1.276-0.561-1.806v0c-0.143-0.215-0.285-0.402-0.425-0.561-0.143-0.165-0.298-0.309-0.465-0.433-0.171-0.13-0.36-0.243-0.567-0.34-0.207-0.097-0.444-0.187-0.709-0.27v0c1.136-0.06 2.012 0.372 2.628 1.296v0c0.415 0.622 0.641 1.307 0.677 2.056 0.041 0.754-0.101 1.524-0.424 2.311-0.327 0.781-0.834 1.564-1.52 2.349-0.68 0.781-1.538 1.517-2.573 2.207v0c-0.384 0.256-0.782 0.496-1.195 0.721-0.413 0.225-0.824 0.427-1.232 0.607-0.405 0.186-0.799 0.344-1.183 0.474-0.39 0.134-0.749 0.231-1.079 0.291v0l0.256 0.384-3.27 2.18z" fill="#ffdbe7" data-fill-palette-color="primary"></path><path d="M85.61 26.167l-0.834-2.094 3.525-1.405-4.813-12.074-3.525 1.405-0.83-2.083 19.415-7.739 2.03 5.092-2.94 1.172-1.2-3.008-9.883 3.939 2.05 5.141 6.552-2.612 0.653 1.636-6.553 2.612 2.111 5.297 9.883-3.94-1.196-2.999 2.941-1.172 2.03 5.093zM98.985 9.529l-0.198-0.496 3.087-1.231-2.131-5.345 0.526-0.21 2.329 5.842zM89.239 13.358l-1.374-3.447 8.393-3.346 0.198 0.497-7.877 3.14 1.176 2.95zM81.315 13.097l-0.198-0.497 2.191-0.873 0.198 0.497zM92.002 20.29l-1.436-3.602 6.543-2.608-0.753-1.889 0.516-0.206 0.951 2.385-6.543 2.608 1.238 3.107zM86.764 26.767l19.561-7.797-2.103-5.277 0.526-0.21 2.301 5.774-20.087 8.007z" fill="#ffdbe7" data-fill-palette-color="primary"></path><path d="M111.44 10.238v0c-0.158-0.98-0.098-1.948 0.179-2.906 0.277-0.958 0.745-1.836 1.402-2.636 0.651-0.791 1.485-1.478 2.503-2.06 1.012-0.574 2.17-0.965 3.473-1.175v0c1.09-0.176 2.1-0.19 3.03-0.043 0.93 0.147 1.813 0.426 2.651 0.837v0l-0.2-1.242 2.98-0.481 0.694 4.305-2.846 0.459c-0.308-0.283-0.676-0.549-1.106-0.799-0.429-0.249-0.902-0.456-1.416-0.621-0.514-0.158-1.066-0.267-1.656-0.327-0.589-0.054-1.198-0.03-1.826 0.071v0c-0.807 0.13-1.535 0.378-2.183 0.745-0.655 0.374-1.2 0.834-1.636 1.378-0.429 0.543-0.741 1.153-0.937 1.829-0.189 0.674-0.223 1.381-0.105 2.119v0c0.125 0.773 0.39 1.431 0.796 1.974 0.405 0.536 0.913 0.964 1.524 1.283 0.61 0.312 1.307 0.511 2.092 0.597 0.778 0.087 1.609 0.059 2.492-0.083v0c1.421-0.229 2.644-0.656 3.669-1.281 1.024-0.632 1.89-1.49 2.6-2.575v0l1.74 1.44c-0.833 1.245-1.871 2.248-3.115 3.007-1.245 0.753-2.74 1.27-4.485 1.551v0c-1.456 0.235-2.782 0.282-3.98 0.143-1.199-0.147-2.239-0.457-3.122-0.93-0.876-0.475-1.589-1.099-2.139-1.875-0.55-0.775-0.907-1.676-1.073-2.704zM126.231 6.686l-0.085-0.527 3.166-0.511-0.755-4.687 0.548-0.089 0.841 5.216zM115.445 9.529v0c-0.099-0.614-0.069-1.199 0.089-1.756 0.152-0.548 0.409-1.043 0.77-1.483 0.362-0.433 0.816-0.8 1.362-1.1 0.54-0.292 1.142-0.492 1.804-0.599v0c0.4-0.064 0.809-0.095 1.227-0.092 0.419 0.01 0.819 0.052 1.199 0.126 0.381 0.08 0.731 0.19 1.051 0.329 0.32 0.14 0.58 0.306 0.781 0.501v0c-0.607-0.207-1.242-0.348-1.905-0.426-0.657-0.078-1.392-0.052-2.206 0.08v0c-0.648 0.105-1.216 0.295-1.702 0.571-0.485 0.283-0.884 0.62-1.197 1.011-0.311 0.397-0.531 0.832-0.66 1.306-0.122 0.473-0.144 0.954-0.064 1.443v0c0.08 0.497 0.226 0.919 0.437 1.268 0.219 0.347 0.494 0.649 0.826 0.907 0.338 0.25 0.732 0.455 1.182 0.616 0.451 0.161 0.957 0.292 1.518 0.393v0c-0.623 0.044-1.192 0.001-1.708-0.128-0.515-0.122-0.967-0.315-1.357-0.578-0.383-0.271-0.699-0.606-0.948-1.004-0.248-0.399-0.415-0.86-0.499-1.385zM114.361 15.713v0c0.494 0.253 1.034 0.463 1.62 0.631 0.593 0.166 1.214 0.286 1.862 0.358 0.656 0.071 1.325 0.098 2.009 0.079 0.691-0.019 1.384-0.085 2.081-0.197v0c0.835-0.135 1.638-0.331 2.411-0.59 0.779-0.26 1.5-0.574 2.162-0.943 0.664-0.362 1.26-0.766 1.79-1.212 0.522-0.452 0.95-0.932 1.287-1.439v0l0.46 0.287c-0.842 1.19-1.943 2.153-3.303 2.889-1.354 0.735-2.938 1.249-4.753 1.541v0c-0.745 0.12-1.499 0.185-2.262 0.195-0.756 0.009-1.475-0.042-2.158-0.152-0.684-0.116-1.304-0.292-1.858-0.528-0.555-0.236-1.004-0.542-1.348-0.919z" fill="#ffdbe7" data-fill-palette-color="primary"></path><path d="M136.856 7.087v0c0.038-1.02 0.295-1.975 0.769-2.866 0.474-0.884 1.121-1.647 1.942-2.287 0.814-0.641 1.78-1.132 2.898-1.475 1.118-0.35 2.337-0.499 3.657-0.45v0c1.39 0.052 2.622 0.284 3.698 0.695 1.075 0.411 1.978 0.959 2.707 1.644 0.729 0.685 1.276 1.482 1.641 2.39 0.364 0.916 0.526 1.901 0.486 2.956v0c-0.039 1.026-0.291 1.961-0.755 2.803-0.472 0.842-1.118 1.559-1.938 2.151-0.827 0.598-1.805 1.051-2.935 1.358-1.13 0.307-2.387 0.435-3.77 0.383v0c-1.299-0.049-2.472-0.285-3.519-0.709-1.047-0.431-1.938-0.985-2.675-1.664-0.73-0.671-1.289-1.433-1.676-2.287-0.387-0.854-0.564-1.734-0.53-2.642zM138.844 13.078v0c0.883 0.691 1.866 1.235 2.949 1.632 1.09 0.398 2.326 0.622 3.709 0.674v0c1.292 0.049 2.541-0.079 3.748-0.383 1.2-0.304 2.267-0.782 3.201-1.432 0.934-0.65 1.691-1.464 2.274-2.443 0.582-0.978 0.898-2.11 0.946-3.394v0c0.023-0.621-0.04-1.257-0.191-1.906-0.15-0.649-0.372-1.276-0.663-1.881-0.292-0.598-0.652-1.161-1.08-1.688-0.435-0.527-0.921-0.979-1.46-1.355v0c0.618 0.303 1.18 0.695 1.687 1.175 0.499 0.48 0.92 1.017 1.261 1.61 0.348 0.601 0.607 1.247 0.777 1.939 0.177 0.692 0.251 1.401 0.224 2.127v0c-0.035 0.922-0.196 1.769-0.484 2.541-0.295 0.772-0.684 1.464-1.169 2.075-0.492 0.618-1.065 1.159-1.718 1.624-0.661 0.458-1.381 0.836-2.162 1.136-0.78 0.292-1.606 0.506-2.479 0.641-0.872 0.135-1.759 0.186-2.659 0.151v0c-0.747-0.028-1.461-0.114-2.141-0.259-0.68-0.137-1.309-0.329-1.887-0.574-0.578-0.246-1.095-0.534-1.551-0.866-0.456-0.339-0.833-0.72-1.132-1.144zM139.98 7.142v0c-0.027 0.726 0.084 1.391 0.334 1.995 0.257 0.604 0.629 1.129 1.115 1.573 0.494 0.445 1.089 0.8 1.786 1.064 0.697 0.257 1.478 0.402 2.343 0.434v0c0.866 0.033 1.659-0.056 2.381-0.267 0.721-0.211 1.348-0.519 1.881-0.926 0.533-0.407 0.95-0.901 1.251-1.484 0.302-0.59 0.466-1.241 0.494-1.954v0c0.026-0.698-0.089-1.363-0.345-1.995-0.256-0.632-0.63-1.195-1.122-1.689-0.485-0.494-1.075-0.89-1.77-1.189-0.702-0.306-1.479-0.475-2.33-0.507v0c-0.887-0.033-1.695 0.069-2.424 0.307-0.722 0.239-1.347 0.582-1.875 1.031-0.52 0.442-0.932 0.972-1.234 1.59-0.296 0.618-0.458 1.29-0.485 2.017zM140.962 7.242v0c0.022-0.594 0.158-1.144 0.408-1.653 0.257-0.508 0.606-0.946 1.046-1.314 0.44-0.361 0.961-0.642 1.563-0.843 0.602-0.194 1.262-0.278 1.982-0.251v0c0.461 0.017 0.906 0.083 1.335 0.198 0.422 0.114 0.815 0.272 1.178 0.474 0.356 0.202 0.669 0.441 0.938 0.717 0.269 0.276 0.485 0.585 0.647 0.926v0c-0.6-0.582-1.231-1.018-1.891-1.308-0.661-0.284-1.41-0.441-2.248-0.473v0c-0.615-0.023-1.18 0.053-1.698 0.23-0.524 0.176-0.984 0.424-1.381 0.745-0.397 0.328-0.712 0.711-0.945 1.15-0.233 0.439-0.36 0.913-0.379 1.423v0c-0.016 0.419 0.022 0.812 0.113 1.179 0.091 0.374 0.253 0.723 0.485 1.046 0.24 0.324 0.561 0.619 0.963 0.886 0.403 0.267 0.907 0.51 1.515 0.728v0c-0.557-0.056-1.063-0.194-1.516-0.414-0.46-0.22-0.848-0.5-1.164-0.841-0.323-0.341-0.567-0.735-0.732-1.181-0.165-0.447-0.238-0.922-0.219-1.424z" fill="#ffdbe7" data-fill-palette-color="primary"></path><path d="M161.234 15.55l0.612-2.016 2.949 0.894 2.63-8.677-2.949-0.894 0.693-2.287 5.848 1.773-0.611 2.016c0.371-0.26 0.788-0.48 1.252-0.661 0.47-0.179 0.972-0.304 1.505-0.376 0.535-0.079 1.098-0.094 1.69-0.047 0.587 0.039 1.191 0.153 1.813 0.342v0c1.264 0.383 2.272 0.959 3.025 1.727 0.748 0.76 1.213 1.733 1.393 2.92v0c0.468-0.34 0.98-0.63 1.535-0.871 0.553-0.234 1.138-0.407 1.756-0.519 0.609-0.107 1.237-0.143 1.884-0.108 0.653 0.037 1.311 0.156 1.973 0.357v0c0.923 0.28 1.715 0.666 2.376 1.158 0.668 0.495 1.179 1.098 1.532 1.812 0.362 0.709 0.556 1.527 0.581 2.454 0.027 0.921-0.131 1.95-0.475 3.087v0l-1.42 4.685 2.959 0.897-0.611 2.016-8.136-2.466 0.612-2.016 2.287 0.693 1.052-3.471c0.255-0.843 0.442-1.589 0.558-2.24 0.117-0.651 0.144-1.172 0.08-1.564v0c-0.126-0.812-0.436-1.454-0.928-1.924-0.486-0.469-1.12-0.821-1.903-1.059v0c-0.448-0.136-0.931-0.191-1.45-0.166-0.51 0.021-1.028 0.116-1.554 0.285-0.517 0.165-1.021 0.392-1.51 0.681-0.491 0.296-0.931 0.638-1.318 1.025v0c-0.041 0.185-0.084 0.373-0.127 0.563-0.048 0.183-0.1 0.368-0.157 0.555v0l-1.42 4.685 2.287 0.693-0.611 2.016-7.464-2.262 0.612-2.016 2.287 0.693 1.073-3.541c0.219-0.722 0.382-1.381 0.49-1.976 0.099-0.591 0.137-1.065 0.113-1.423v0c-0.067-0.911-0.349-1.632-0.845-2.162-0.498-0.523-1.156-0.909-1.971-1.156v0c-0.448-0.136-0.924-0.192-1.428-0.17-0.51 0.021-1.019 0.111-1.528 0.271-0.515 0.158-1.013 0.379-1.493 0.664-0.487 0.283-0.924 0.614-1.309 0.995v0l-1.779 5.868 2.287 0.693-0.611 2.016zM192.263 10.783v0c0.562 0.338 1.006 0.754 1.331 1.247 0.317 0.498 0.524 1.064 0.624 1.7 0.106 0.638 0.11 1.337 0.011 2.096-0.094 0.767-0.273 1.586-0.536 2.455v0l-1.116 3.681-0.532-0.161 1.143-3.772c0.239-0.789 0.399-1.544 0.479-2.264 0.084-0.712 0.088-1.375 0.011-1.99-0.077-0.615-0.232-1.173-0.467-1.675-0.235-0.502-0.551-0.941-0.948-1.317zM180.697 7.277v0c0.418 0.185 0.76 0.42 1.024 0.705 0.271 0.287 0.462 0.571 0.574 0.853v0l-0.5 0.242c-0.021-0.123-0.065-0.268-0.132-0.434-0.073-0.168-0.16-0.34-0.259-0.517-0.102-0.17-0.215-0.328-0.338-0.474-0.128-0.156-0.251-0.281-0.369-0.375zM180.469 18.292l1.426-4.704c0.347-0.326 0.716-0.604 1.108-0.837 0.392-0.232 0.793-0.413 1.205-0.543 0.41-0.124 0.825-0.192 1.245-0.204 0.411-0.007 0.814 0.05 1.208 0.17v0c0.615 0.186 1.088 0.458 1.418 0.813 0.332 0.349 0.534 0.731 0.606 1.147v0c-0.218-0.292-0.5-0.568-0.845-0.826-0.341-0.249-0.795-0.46-1.364-0.632v0c-0.348-0.105-0.714-0.151-1.098-0.136-0.378 0.017-0.748 0.084-1.112 0.2-0.364 0.116-0.707 0.271-1.028 0.466-0.329 0.192-0.607 0.411-0.835 0.656v0l-1.392 4.594zM168.903 14.786l1.426-4.704c0.347-0.326 0.716-0.604 1.108-0.837 0.392-0.232 0.793-0.413 1.205-0.543 0.41-0.124 0.825-0.192 1.245-0.203 0.411-0.007 0.814 0.05 1.208 0.169v0c0.615 0.186 1.088 0.458 1.418 0.813 0.332 0.349 0.534 0.731 0.606 1.147v0c-0.218-0.292-0.5-0.568-0.845-0.825-0.341-0.249-0.795-0.46-1.364-0.633v0c-0.348-0.105-0.714-0.151-1.098-0.136-0.378 0.017-0.748 0.084-1.112 0.2-0.364 0.116-0.707 0.271-1.028 0.466-0.329 0.192-0.607 0.411-0.835 0.656v0l-1.392 4.594zM164.837 6.555l0.155-0.512 1.585 0.481-0.155 0.511zM185.555 23.952l8.296 2.515 0.669-2.207 0.542 0.164-0.825 2.719-8.837-2.679zM173.989 20.446l7.624 2.311 0.669-2.207 0.541 0.165-0.824 2.718-8.165-2.475zM161.751 16.737l8.296 2.514 0.669-2.207 0.541 0.165-0.824 2.718-8.837-2.679z" fill="#ffdbe7" data-fill-palette-color="primary"></path><path d="M197.803 27.981l1.2-1.732 2.533 1.756 5.165-7.452-2.533-1.756 1.361-1.964 5.023 3.482-1.2 1.731c0.433-0.134 0.898-0.215 1.394-0.245 0.503-0.026 1.018 0.009 1.548 0.104 0.533 0.089 1.074 0.247 1.622 0.474 0.547 0.217 1.087 0.511 1.622 0.881v0c1.085 0.752 1.869 1.61 2.349 2.572 0.479 0.953 0.622 2.021 0.43 3.206v0c0.55-0.18 1.126-0.299 1.728-0.358 0.598-0.053 1.208-0.038 1.831 0.045 0.613 0.085 1.222 0.243 1.826 0.475 0.61 0.236 1.2 0.551 1.768 0.945v0c0.793 0.549 1.428 1.16 1.907 1.831 0.484 0.676 0.785 1.407 0.902 2.195 0.127 0.785 0.061 1.624-0.2 2.514-0.256 0.885-0.723 1.816-1.399 2.792v0l-2.789 4.023 2.541 1.762-1.2 1.731-6.986-4.842 1.2-1.732 1.964 1.361 2.066-2.98c0.502-0.724 0.908-1.377 1.219-1.961 0.311-0.584 0.496-1.072 0.556-1.464v0c0.129-0.812 0.031-1.517-0.293-2.117-0.319-0.595-0.814-1.125-1.487-1.591v0c-0.385-0.267-0.828-0.468-1.329-0.602-0.492-0.137-1.014-0.205-1.566-0.206-0.543-0.002-1.091 0.06-1.647 0.185-0.559 0.131-1.082 0.322-1.568 0.571v0c-0.096 0.163-0.194 0.329-0.294 0.497-0.102 0.159-0.208 0.319-0.32 0.48v0l-2.789 4.023 1.964 1.362-1.2 1.731-6.409-4.442 1.2-1.732 1.964 1.362 2.108-3.041c0.43-0.62 0.787-1.197 1.072-1.731 0.275-0.532 0.457-0.972 0.545-1.319v0c0.216-0.888 0.169-1.66-0.142-2.317-0.314-0.651-0.821-1.22-1.521-1.706v0c-0.385-0.267-0.82-0.467-1.307-0.599-0.492-0.137-1.004-0.207-1.537-0.211-0.539-0.008-1.081 0.05-1.626 0.174-0.551 0.12-1.068 0.301-1.55 0.545v0l-3.494 5.039 1.965 1.362-1.201 1.731zM228.798 32.962v0c0.431 0.494 0.726 1.026 0.884 1.594 0.149 0.571 0.173 1.174 0.072 1.81-0.095 0.64-0.306 1.306-0.632 1.998-0.325 0.702-0.746 1.426-1.264 2.172v0l-2.191 3.162-0.457-0.316 2.246-3.24c0.47-0.678 0.853-1.347 1.15-2.008 0.299-0.652 0.506-1.282 0.621-1.891 0.116-0.609 0.139-1.188 0.069-1.737-0.07-0.55-0.236-1.065-0.498-1.544zM218.865 26.077v0c0.341 0.305 0.594 0.633 0.759 0.985 0.17 0.356 0.265 0.685 0.284 0.988v0l-0.551 0.077c0.018-0.124 0.02-0.275 0.008-0.454-0.018-0.183-0.048-0.373-0.088-0.571-0.045-0.193-0.104-0.378-0.176-0.556-0.074-0.187-0.153-0.344-0.236-0.469zM215.269 36.491l2.8-4.041c0.43-0.203 0.867-0.356 1.311-0.456 0.444-0.101 0.882-0.15 1.314-0.147 0.428 0.008 0.844 0.071 1.247 0.188 0.393 0.12 0.759 0.297 1.098 0.532v0c0.528 0.366 0.895 0.769 1.101 1.209 0.209 0.434 0.284 0.86 0.224 1.277v0c-0.118-0.345-0.301-0.694-0.551-1.045-0.248-0.342-0.616-0.682-1.104-1.02v0c-0.299-0.207-0.633-0.362-1.003-0.466-0.365-0.1-0.738-0.15-1.12-0.151-0.382-0.001-0.756 0.042-1.122 0.128-0.372 0.082-0.703 0.205-0.995 0.369v0l-2.735 3.945zM205.336 29.606l2.801-4.04c0.43-0.203 0.867-0.356 1.31-0.456 0.444-0.101 0.882-0.15 1.314-0.148 0.428 0.008 0.844 0.071 1.247 0.188 0.393 0.12 0.759 0.297 1.099 0.532v0c0.528 0.366 0.895 0.769 1.1 1.209 0.209 0.434 0.284 0.86 0.224 1.277v0c-0.118-0.345-0.301-0.694-0.551-1.045-0.248-0.342-0.616-0.682-1.104-1.02v0c-0.299-0.207-0.633-0.362-1.003-0.466-0.365-0.1-0.738-0.15-1.12-0.151-0.382-0.001-0.756 0.042-1.122 0.128-0.372 0.082-0.703 0.205-0.995 0.369v0l-2.735 3.945zM203.991 20.524l0.305-0.439 1.361 0.943-0.304 0.44zM218.374 43.438l7.124 4.938 1.314-1.895 0.465 0.323-1.618 2.334-7.59-5.261zM208.441 36.553l6.547 4.538 1.314-1.895 0.465 0.323-1.618 2.334-7.013-4.86zM197.931 29.268l7.124 4.939 1.314-1.896 0.465 0.323-1.618 2.334-7.59-5.26z" fill="#ffdbe7" data-fill-palette-color="primary"></path><path d="M233.724 46.583v0c0.75-0.649 1.585-1.132 2.505-1.446 0.924-0.31 1.883-0.414 2.876-0.313 0.993 0.111 1.999 0.442 3.019 0.991 1.02 0.559 1.998 1.38 2.936 2.463v0c0.883 1.02 1.534 2.05 1.954 3.092 0.421 1.031 0.615 2.051 0.582 3.059-0.033 1.008-0.294 1.983-0.783 2.923-0.499 0.94-1.227 1.824-2.183 2.651v0l-9.294-10.74c-0.452 0.502-0.762 1.057-0.93 1.665-0.173 0.612-0.216 1.24-0.129 1.885 0.082 0.65 0.278 1.298 0.588 1.945 0.311 0.637 0.711 1.238 1.2 1.803v0c0.402 0.465 0.846 0.903 1.332 1.315 0.49 0.417 0.981 0.782 1.474 1.095 0.493 0.313 0.962 0.567 1.409 0.763 0.447 0.196 0.835 0.308 1.165 0.337v0l0.349 0.404-0.221 1.938c-1.255-0.19-2.496-0.668-3.724-1.435-1.228-0.767-2.386-1.78-3.474-3.038v0c-0.951-1.099-1.658-2.188-2.119-3.266-0.467-1.084-0.711-2.12-0.735-3.108-0.028-0.983 0.149-1.899 0.533-2.748 0.379-0.854 0.935-1.6 1.67-2.235zM235.476 50.93l9.04 10.447c0.115-0.081 0.24-0.171 0.376-0.27 0.126-0.1 0.261-0.212 0.403-0.335v0c0.602-0.521 1.123-1.083 1.564-1.685 0.444-0.597 0.799-1.218 1.063-1.863 0.265-0.645 0.441-1.311 0.531-1.998 0.094-0.682 0.088-1.361-0.017-2.037v0c0.217 0.625 0.336 1.275 0.357 1.95 0.016 0.67-0.082 1.347-0.295 2.03-0.217 0.678-0.559 1.357-1.024 2.036-0.461 0.685-1.064 1.35-1.808 1.995v0c-0.058 0.05-0.132 0.109-0.221 0.177-0.089 0.068-0.189 0.145-0.299 0.232-0.11 0.086-0.225 0.172-0.346 0.257-0.12 0.085-0.24 0.166-0.359 0.242v0l-8.69-10.043c-0.113 0.329-0.128 0.776-0.045 1.342 0.073 0.565 0.277 1.206 0.612 1.924v0c-0.306-0.354-0.552-0.724-0.738-1.108-0.181-0.38-0.307-0.76-0.378-1.142-0.067-0.376-0.077-0.751-0.03-1.125 0.046-0.363 0.148-0.705 0.304-1.025zM236.723 48.174l7.119 8.228c0.386-0.537 0.668-1.091 0.848-1.663 0.175-0.567 0.243-1.134 0.205-1.702-0.043-0.573-0.188-1.141-0.434-1.703-0.251-0.568-0.608-1.119-1.07-1.653v0c-0.494-0.571-1.021-1.025-1.581-1.362-0.555-0.342-1.123-0.572-1.704-0.688-0.586-0.122-1.164-0.134-1.736-0.036-0.576 0.092-1.125 0.285-1.647 0.579zM238.436 49.242l-0.425-0.492c0.81-0.239 1.624-0.222 2.441 0.05 0.822 0.277 1.553 0.786 2.194 1.526v0c0.265 0.306 0.497 0.623 0.697 0.949 0.204 0.332 0.358 0.665 0.463 1 0.11 0.33 0.171 0.651 0.183 0.964 0.007 0.318-0.039 0.611-0.138 0.882v0c-0.078-0.635-0.253-1.237-0.524-1.806-0.276-0.575-0.642-1.126-1.099-1.655v0c-0.535-0.618-1.131-1.05-1.787-1.296-0.661-0.251-1.329-0.292-2.005-0.122zM230.373 51.729v0c0.103 1.112 0.418 2.24 0.944 3.382 0.517 1.142 1.285 2.302 2.305 3.481v0c0.992 1.147 2.052 2.11 3.18 2.89 1.128 0.77 2.312 1.326 3.551 1.668v0l-0.062 0.553c-1.409-0.379-2.677-0.964-3.805-1.754-1.127-0.79-2.168-1.737-3.124-2.841v0c-1.244-1.437-2.103-2.777-2.578-4.02-0.47-1.248-0.607-2.367-0.411-3.359z" fill="#ffdbe7" data-fill-palette-color="primary"></path><path d="M244.131 69.912l1.814-1.071 1.573 2.662 7.806-4.613-1.573-2.662 2.058-1.216 3.114 5.27-2.022 1.195c0.471 0.055 0.955 0.174 1.454 0.358 0.495 0.178 0.982 0.426 1.462 0.743 0.482 0.308 0.94 0.691 1.373 1.149 0.436 0.449 0.829 0.971 1.181 1.567v0c0.103 0.174 0.229 0.401 0.377 0.678 0.144 0.272 0.267 0.54 0.367 0.806v0l-2.365 1.397c-0.107-0.318-0.228-0.62-0.364-0.905-0.139-0.291-0.286-0.566-0.438-0.824v0c-0.38-0.644-0.844-1.194-1.39-1.651-0.546-0.457-1.148-0.795-1.805-1.015-0.658-0.22-1.355-0.307-2.091-0.262-0.74 0.039-1.488 0.242-2.246 0.609v0l-3.356 1.984 2.57 4.349-1.814 1.072zM250.292 74.527l1.534-0.907c0.758-0.448 1.492-0.752 2.201-0.911 0.709-0.159 1.378-0.181 2.007-0.065 0.619 0.113 1.189 0.364 1.711 0.754 0.528 0.386 0.983 0.901 1.363 1.544v0c0.082 0.138 0.173 0.32 0.274 0.545 0.106 0.221 0.206 0.459 0.299 0.712 0.093 0.253 0.179 0.515 0.257 0.785 0.078 0.27 0.134 0.522 0.166 0.755v0l2.851-1.686 0.283 0.479-3.456 2.042c-0.035-0.279-0.092-0.575-0.171-0.885-0.081-0.301-0.171-0.605-0.27-0.912-0.106-0.303-0.218-0.589-0.338-0.86-0.116-0.264-0.234-0.499-0.355-0.703v0c-0.348-0.59-0.757-1.054-1.226-1.394-0.459-0.337-0.963-0.559-1.512-0.665-0.546-0.1-1.131-0.074-1.757 0.077-0.623 0.141-1.265 0.407-1.927 0.797v0l-1.652 0.976zM252.875 65.732l0.46-0.272 0.842 1.426-0.46 0.272zM243.715 71.145l5.77 9.764 1.985-1.173 0.288 0.487-2.445 1.445-6.058-10.251z" fill="#ffdbe7" data-fill-palette-color="primary"></path><path d="M259.874 85.335v0c0.931-0.344 1.893-0.473 2.886-0.386 0.993 0.087 1.946 0.375 2.858 0.865 0.902 0.486 1.737 1.171 2.504 2.057 0.758 0.882 1.367 1.942 1.826 3.181v0c0.383 1.035 0.592 2.024 0.627 2.964 0.035 0.941-0.067 1.862-0.308 2.763v0l1.18-0.437 1.048 2.831-4.09 1.514-1-2.704c0.218-0.356 0.408-0.769 0.57-1.239 0.162-0.47 0.273-0.973 0.335-1.51 0.055-0.535 0.056-1.097 0.001-1.688-0.061-0.588-0.202-1.181-0.423-1.777v0c-0.284-0.767-0.668-1.433-1.153-1.999-0.494-0.57-1.05-1.016-1.669-1.338-0.616-0.316-1.275-0.504-1.975-0.565-0.698-0.055-1.398 0.048-2.099 0.307v0c-0.734 0.272-1.328 0.659-1.783 1.163-0.448 0.501-0.769 1.082-0.964 1.742-0.189 0.658-0.249 1.381-0.181 2.169 0.065 0.781 0.253 1.59 0.563 2.429v0c0.5 1.35 1.155 2.467 1.967 3.351 0.818 0.882 1.828 1.566 3.029 2.054v0l-1.076 1.985c-1.383-0.576-2.567-1.401-3.554-2.474-0.979-1.076-1.776-2.443-2.389-4.101v0c-0.512-1.383-0.815-2.675-0.909-3.877-0.088-1.204 0.015-2.286 0.308-3.243 0.296-0.952 0.771-1.772 1.426-2.461 0.654-0.689 1.469-1.214 2.445-1.576zM266.219 99.16l0.502-0.186 1.113 3.008 4.453-1.648 0.193 0.521-4.955 1.834zM261.345 89.127v0c0.583-0.216 1.163-0.3 1.739-0.252 0.567 0.043 1.102 0.199 1.604 0.468 0.495 0.271 0.943 0.646 1.344 1.124 0.391 0.474 0.703 1.025 0.936 1.654v0c0.141 0.38 0.25 0.776 0.327 1.186 0.071 0.413 0.107 0.813 0.109 1.201-0.005 0.389-0.045 0.754-0.12 1.095-0.075 0.341-0.188 0.629-0.34 0.863v0c0.085-0.635 0.102-1.286 0.049-1.951-0.05-0.659-0.219-1.376-0.505-2.15v0c-0.228-0.616-0.525-1.136-0.89-1.559-0.372-0.421-0.779-0.747-1.222-0.978-0.45-0.229-0.919-0.36-1.409-0.395-0.487-0.028-0.964 0.044-1.429 0.215v0c-0.472 0.175-0.858 0.399-1.159 0.675-0.298 0.282-0.542 0.61-0.731 0.986-0.18 0.38-0.305 0.806-0.376 1.279-0.071 0.473-0.101 0.995-0.091 1.565v0c-0.163-0.603-0.232-1.17-0.205-1.701 0.02-0.529 0.122-1.01 0.304-1.443 0.192-0.429 0.459-0.803 0.803-1.124 0.343-0.321 0.764-0.573 1.262-0.758zM255.068 89.26v0c-0.153 0.533-0.255 1.104-0.306 1.711-0.048 0.614-0.045 1.246 0.009 1.897 0.057 0.657 0.16 1.319 0.31 1.986 0.152 0.674 0.351 1.342 0.597 2.003v0c0.293 0.793 0.642 1.543 1.045 2.251 0.406 0.714 0.854 1.361 1.343 1.94 0.483 0.581 0.995 1.088 1.536 1.522 0.544 0.424 1.098 0.752 1.66 0.983v0l-0.192 0.507c-1.331-0.595-2.488-1.49-3.474-2.682-0.983-1.186-1.793-2.641-2.431-4.364v0c-0.262-0.708-0.471-1.435-0.628-2.182-0.155-0.74-0.244-1.456-0.269-2.147-0.018-0.694 0.035-1.335 0.159-1.925 0.124-0.59 0.338-1.09 0.641-1.5z" fill="#ffdbe7" data-fill-palette-color="primary"></path><path d="M1.242 138.854c0-3.691 2.992-6.683 6.683-6.682 3.691 0 6.683 2.992 6.683 6.682 0 3.691-2.992 6.683-6.683 6.683-3.691 0-6.683-2.992-6.683-6.683z" fill="#ffdbe7" data-fill-palette-color="primary"></path><path d="M265.392 138.854c0-3.691 2.992-6.683 6.683-6.682 3.691 0 6.683 2.992 6.683 6.682 0 3.691-2.992 6.683-6.683 6.683-3.691 0-6.683-2.992-6.683-6.683z" fill="#ffdbe7" data-fill-palette-color="primary"></path></g><g id="text-1"><path d="M6.52 177.689l1.934-0.723 1.131 3.024 11.202-4.191-1.223-3.269 1.944-0.727 2.651 7.088-7.023 14.703 9.042-3.383-1.223-3.269 1.944-0.727 3.467 9.268-1.944 0.727-1.223-3.269-13.136 4.913-0.976-2.611 8.083-16.476-10.564 3.952 1.223 3.269-1.934 0.724zM12.514 196.285l1.028 2.749 13.136-4.914 1.223 3.27 2.18-0.816 0.183 0.491-2.641 0.988-1.223-3.269-13.135 4.914-1.212-3.24zM24.182 180.807l0.243 0.648-4.932 10.72-0.707 0.264zM23.921 188.157l0.462-0.173 0.76 2.033-0.461 0.172zM18.53 173.745l0.461-0.173 0.299 2.205v0zM11.656 183.311l8.188-3.063-0.347 0.689-7.658 2.865zM5.947 178.732l3.431 9.169 2.101-0.786 0.18 0.481-2.563 0.959-3.61-9.651z" fill="#ffdbe7" data-fill-palette-color="secondary"></path><path d="M25.962 207.971v0c0.759-0.512 1.577-0.862 2.453-1.049 0.871-0.183 1.755-0.173 2.652 0.032 0.9 0.21 1.787 0.624 2.658 1.241 0.866 0.621 1.666 1.476 2.401 2.565v0c0.696 1.031 1.179 2.041 1.451 3.03 0.269 0.999 0.333 1.955 0.19 2.868-0.138 0.919-0.484 1.781-1.038 2.585-0.554 0.804-1.314 1.532-2.282 2.184v0l-7.311-10.835c-0.467 0.408-0.81 0.88-1.03 1.416-0.216 0.542-0.324 1.112-0.324 1.711 0.009 0.601 0.117 1.211 0.324 1.83 0.211 0.625 0.51 1.224 0.897 1.797v0c0.313 0.463 0.669 0.91 1.068 1.34 0.4 0.43 0.808 0.816 1.225 1.159 0.422 0.339 0.825 0.623 1.208 0.854 0.389 0.227 0.731 0.371 1.026 0.433v0l0.275 0.409-0.414 1.746c-1.128-0.31-2.21-0.882-3.246-1.717-1.036-0.835-1.982-1.887-2.837-3.156v0c-0.75-1.112-1.277-2.186-1.579-3.221-0.302-1.035-0.413-2.006-0.334-2.911 0.086-0.909 0.351-1.729 0.795-2.458 0.44-0.735 1.03-1.353 1.772-1.853zM27.081 212.122l7.112 10.539c0.118-0.063 0.242-0.129 0.371-0.2 0.131-0.08 0.267-0.167 0.405-0.261v0c0.608-0.41 1.147-0.867 1.618-1.369 0.474-0.497 0.866-1.027 1.177-1.591 0.315-0.558 0.549-1.142 0.702-1.751 0.155-0.619 0.224-1.243 0.205-1.871v0c0.131 0.594 0.17 1.201 0.115 1.819-0.059 0.613-0.224 1.217-0.496 1.814-0.268 0.602-0.651 1.19-1.15 1.763-0.503 0.567-1.131 1.104-1.883 1.612v0c-0.052 0.035-0.122 0.082-0.209 0.141-0.091 0.053-0.19 0.112-0.298 0.176-0.114 0.068-0.23 0.134-0.348 0.197-0.118 0.063-0.238 0.122-0.36 0.179v0l-6.83-10.123c-0.136 0.286-0.203 0.693-0.2 1.223 0.009 0.525 0.127 1.132 0.357 1.82v0c-0.242-0.359-0.424-0.722-0.544-1.087-0.13-0.368-0.206-0.73-0.227-1.086-0.021-0.356 0.013-0.7 0.101-1.029 0.08-0.332 0.207-0.637 0.382-0.915zM28.524 209.744l5.599 8.298c0.414-0.448 0.732-0.92 0.955-1.415 0.228-0.499 0.353-1.014 0.375-1.543 0.026-0.523-0.044-1.058-0.21-1.604-0.166-0.546-0.429-1.085-0.788-1.618v0c-0.391-0.579-0.822-1.056-1.293-1.429-0.477-0.369-0.973-0.642-1.487-0.817-0.516-0.166-1.041-0.237-1.574-0.215-0.543 0.02-1.068 0.135-1.577 0.343zM29.975 210.902l-0.328-0.487c0.761-0.134 1.501-0.031 2.22 0.311 0.719 0.341 1.333 0.888 1.841 1.641v0c0.207 0.307 0.382 0.623 0.525 0.947 0.149 0.321 0.254 0.638 0.314 0.952 0.064 0.319 0.083 0.623 0.057 0.91-0.026 0.287-0.097 0.55-0.213 0.789v0c-0.005-0.595-0.101-1.167-0.286-1.717-0.185-0.549-0.46-1.093-0.823-1.632v0c-0.418-0.62-0.913-1.078-1.485-1.375-0.581-0.299-1.188-0.412-1.822-0.339zM22.334 212.302v0c-0.023 1.027 0.138 2.09 0.483 3.19 0.349 1.105 0.924 2.251 1.726 3.438v0c0.778 1.153 1.642 2.146 2.593 2.98 0.947 0.828 1.965 1.469 3.054 1.922v0l-0.11 0.492c-1.247-0.499-2.34-1.169-3.279-2.011-0.943-0.848-1.791-1.83-2.546-2.948v0c-0.977-1.448-1.614-2.767-1.912-3.958-0.293-1.185-0.296-2.219-0.009-3.105z" fill="#ffdbe7" data-fill-palette-color="secondary"></path><path d="M37.638 233.556l2.51-2.516 1.884 1.881c-0.084 0.41-0.068 0.865 0.046 1.363 0.119 0.494 0.315 0.995 0.588 1.504 0.272 0.519 0.611 1.044 1.017 1.578 0.411 0.528 0.863 1.039 1.358 1.533v0c0.406 0.405 0.782 0.721 1.127 0.947 0.351 0.222 0.67 0.367 0.957 0.436 0.287 0.069 0.544 0.069 0.771 0 0.222-0.064 0.422-0.186 0.6-0.364v0c0.37-0.371 0.392-0.986 0.064-1.846-0.332-0.864-1.072-2.007-2.219-3.429v0c-0.762-0.948-1.351-1.787-1.767-2.518-0.411-0.736-0.674-1.393-0.788-1.971-0.119-0.583-0.107-1.099 0.035-1.549 0.153-0.45 0.407-0.853 0.762-1.209v0c0.311-0.312 0.718-0.522 1.223-0.631 0.499-0.114 1.067-0.09 1.704 0.072 0.643 0.157 1.337 0.461 2.084 0.909 0.747 0.459 1.526 1.093 2.337 1.903v0c0.262 0.262 0.512 0.545 0.749 0.851 0.242 0.311 0.458 0.634 0.646 0.97 0.193 0.331 0.359 0.664 0.498 1 0.144 0.331 0.248 0.652 0.312 0.964v0l0.511-0.512 1.974 1.969-2.465 2.471-1.974-1.97c0.123-0.252 0.165-0.571 0.125-0.956-0.05-0.385-0.157-0.788-0.32-1.208-0.164-0.42-0.372-0.835-0.624-1.244-0.252-0.4-0.525-0.746-0.817-1.037v0c-0.386-0.385-0.777-0.721-1.172-1.007-0.396-0.286-0.771-0.503-1.127-0.651-0.346-0.148-0.662-0.227-0.949-0.236-0.292-0.005-0.521 0.077-0.689 0.246v0c-0.158 0.158-0.244 0.359-0.259 0.6-0.015 0.242 0.057 0.551 0.216 0.927 0.154 0.37 0.404 0.827 0.75 1.37 0.346 0.533 0.809 1.168 1.388 1.903v0c0.772 0.987 1.376 1.866 1.812 2.637 0.431 0.775 0.713 1.477 0.847 2.104 0.129 0.622 0.112 1.183-0.05 1.682-0.158 0.494-0.449 0.954-0.873 1.38v0c-0.311 0.312-0.708 0.522-1.193 0.631-0.484 0.109-1.028 0.1-1.63-0.028-0.593-0.128-1.226-0.384-1.899-0.768-0.672-0.385-1.35-0.918-2.032-1.599v0c-0.44-0.439-0.834-0.866-1.18-1.281-0.351-0.42-0.666-0.847-0.943-1.281-0.272-0.43-0.515-0.869-0.728-1.319-0.203-0.449-0.382-0.929-0.535-1.437v0l-0.696 0.698zM51.65 236.831l0.348-0.349 2.174 2.169 2.717-2.723 0.371 0.37-3.065 3.072zM47.277 229.965v0c0.099-0.059 0.245-0.057 0.437 0.007 0.198 0.059 0.423 0.16 0.675 0.303 0.247 0.148 0.507 0.328 0.779 0.54 0.272 0.212 0.529 0.439 0.771 0.681v0c0.208 0.207 0.408 0.437 0.601 0.689 0.193 0.252 0.361 0.504 0.505 0.755 0.144 0.252 0.255 0.501 0.334 0.749 0.074 0.242 0.109 0.459 0.105 0.652v0c-0.079-0.198-0.198-0.415-0.357-0.652-0.153-0.232-0.322-0.464-0.504-0.696-0.178-0.227-0.359-0.442-0.542-0.645-0.183-0.212-0.341-0.385-0.475-0.518v0c-0.495-0.494-0.947-0.896-1.358-1.206-0.415-0.316-0.739-0.535-0.971-0.659zM42.962 229.273v0c-0.049 0.395-0.039 0.796 0.031 1.201 0.065 0.41 0.199 0.85 0.402 1.319 0.203 0.469 0.48 0.973 0.832 1.511 0.351 0.538 0.782 1.131 1.291 1.777v0c0.475 0.592 0.871 1.116 1.188 1.57 0.317 0.464 0.564 0.869 0.742 1.215 0.178 0.346 0.287 0.647 0.328 0.904 0.045 0.252 0.018 0.467-0.081 0.645v0c-0.04-0.217-0.109-0.44-0.209-0.667-0.099-0.227-0.25-0.496-0.453-0.808-0.203-0.311-0.465-0.681-0.786-1.11-0.322-0.43-0.725-0.955-1.21-1.578v0c-1.014-1.279-1.702-2.4-2.065-3.363-0.367-0.968-0.37-1.84-0.01-2.616zM37.446 234.638l2.182 2.177 0.377-0.379c0.089 0.247 0.23 0.541 0.424 0.882 0.188 0.336 0.413 0.699 0.676 1.089 0.262 0.39 0.557 0.788 0.883 1.192 0.327 0.405 0.678 0.795 1.054 1.17v0c0.757 0.755 1.523 1.352 2.299 1.791 0.776 0.449 1.52 0.742 2.232 0.879 0.707 0.143 1.364 0.142 1.972-0.002 0.603-0.149 1.111-0.431 1.526-0.846v0c0.163-0.163 0.304-0.324 0.422-0.483 0.128-0.158 0.232-0.326 0.31-0.504 0.084-0.173 0.153-0.361 0.207-0.564 0.044-0.203 0.081-0.432 0.111-0.689v0c0.258 1.018 0.029 1.885-0.687 2.602v0c-0.489 0.49-1.066 0.821-1.733 0.995-0.672 0.169-1.391 0.177-2.157 0.025-0.771-0.147-1.569-0.46-2.395-0.939-0.831-0.473-1.652-1.115-2.463-1.924v0c-0.302-0.301-0.591-0.615-0.868-0.94-0.277-0.336-0.534-0.671-0.772-1.007-0.238-0.336-0.453-0.664-0.646-0.985-0.188-0.326-0.339-0.63-0.453-0.912v0l-0.304 0.305-2.567-2.562z" fill="#ffdbe7" data-fill-palette-color="secondary"></path><path d="M57.803 251.633l1.973-2.955 2.214 1.479c-0.002 0.419 0.101 0.862 0.31 1.329 0.213 0.461 0.502 0.915 0.868 1.361 0.368 0.456 0.803 0.906 1.304 1.35 0.505 0.438 1.049 0.852 1.63 1.24v0c0.477 0.318 0.907 0.555 1.291 0.71 0.388 0.15 0.729 0.23 1.023 0.242 0.295 0.012 0.547-0.038 0.756-0.15 0.206-0.106 0.378-0.264 0.518-0.474v0c0.291-0.436 0.193-1.044-0.295-1.823-0.494-0.783-1.442-1.761-2.844-2.933v0c-0.932-0.782-1.672-1.491-2.223-2.126-0.546-0.642-0.931-1.235-1.155-1.781-0.23-0.549-0.319-1.057-0.266-1.526 0.062-0.471 0.233-0.916 0.512-1.334v0c0.244-0.366 0.603-0.652 1.077-0.857 0.467-0.209 1.029-0.296 1.686-0.26 0.661 0.03 1.401 0.192 2.221 0.487 0.822 0.305 1.709 0.776 2.661 1.412v0c0.308 0.206 0.608 0.436 0.901 0.69 0.298 0.258 0.572 0.533 0.822 0.826 0.254 0.287 0.481 0.582 0.683 0.885 0.205 0.297 0.37 0.591 0.493 0.884v0l0.402-0.602 2.319 1.549-1.939 2.902-2.319-1.548c0.072-0.271 0.051-0.592-0.063-0.962-0.124-0.368-0.307-0.743-0.548-1.123-0.242-0.38-0.527-0.747-0.854-1.099-0.325-0.343-0.659-0.629-1.002-0.859v0c-0.453-0.303-0.902-0.556-1.346-0.76-0.444-0.204-0.854-0.344-1.232-0.419-0.368-0.078-0.694-0.094-0.977-0.048-0.287 0.052-0.496 0.177-0.628 0.375v0c-0.124 0.186-0.17 0.399-0.137 0.639 0.033 0.24 0.163 0.529 0.391 0.867 0.223 0.334 0.557 0.733 1.002 1.199 0.443 0.456 1.021 0.988 1.732 1.597v0c0.949 0.819 1.712 1.563 2.289 2.234 0.573 0.677 0.986 1.31 1.24 1.9 0.248 0.586 0.34 1.139 0.278 1.66-0.059 0.515-0.255 1.023-0.589 1.523v0c-0.244 0.366-0.594 0.65-1.047 0.851-0.454 0.201-0.989 0.298-1.605 0.289-0.607-0.01-1.277-0.139-2.012-0.385-0.734-0.247-1.502-0.638-2.304-1.173v0c-0.517-0.345-0.986-0.688-1.406-1.028-0.426-0.343-0.817-0.701-1.174-1.073-0.35-0.369-0.674-0.753-0.97-1.152-0.287-0.401-0.555-0.837-0.804-1.306v0l-0.547 0.819zM72.184 252.124l0.274-0.409 2.554 1.705 2.136-3.199 0.436 0.291-2.41 3.609zM66.56 246.239v0c0.085-0.077 0.229-0.104 0.431-0.078 0.205 0.02 0.446 0.075 0.72 0.166 0.271 0.097 0.561 0.223 0.869 0.379 0.308 0.155 0.604 0.328 0.89 0.518v0c0.244 0.163 0.485 0.349 0.723 0.559 0.238 0.209 0.452 0.424 0.642 0.643 0.19 0.219 0.348 0.442 0.473 0.669 0.12 0.223 0.196 0.429 0.23 0.619v0c-0.116-0.178-0.275-0.368-0.477-0.57-0.196-0.198-0.406-0.393-0.63-0.585-0.219-0.188-0.438-0.364-0.657-0.527-0.221-0.173-0.41-0.311-0.566-0.416v0c-0.581-0.388-1.103-0.695-1.567-0.92-0.469-0.229-0.829-0.381-1.081-0.457zM62.194 246.398v0c0.029 0.397 0.117 0.788 0.263 1.172 0.143 0.39 0.36 0.795 0.65 1.216 0.29 0.421 0.66 0.861 1.11 1.32 0.449 0.46 0.987 0.957 1.612 1.493v0c0.581 0.489 1.071 0.925 1.47 1.309 0.401 0.394 0.722 0.743 0.965 1.048 0.242 0.304 0.408 0.579 0.496 0.823 0.093 0.238 0.108 0.455 0.046 0.648v0c-0.081-0.206-0.193-0.41-0.334-0.613-0.141-0.204-0.342-0.438-0.601-0.704-0.26-0.266-0.589-0.578-0.988-0.937-0.399-0.359-0.897-0.796-1.493-1.313v0c-1.243-1.057-2.136-2.023-2.678-2.897-0.548-0.878-0.721-1.733-0.518-2.565zM57.825 252.732l2.563 1.712 0.297-0.445c0.135 0.225 0.331 0.486 0.586 0.783 0.25 0.293 0.541 0.605 0.875 0.937 0.333 0.332 0.699 0.664 1.098 0.998 0.399 0.334 0.819 0.648 1.261 0.942v0c0.889 0.594 1.757 1.031 2.603 1.311 0.849 0.289 1.635 0.433 2.361 0.429 0.721 0.003 1.365-0.126 1.933-0.385 0.562-0.263 1.006-0.639 1.333-1.127v0c0.128-0.192 0.235-0.377 0.32-0.555 0.095-0.18 0.164-0.365 0.207-0.555 0.049-0.186 0.08-0.384 0.093-0.593 0.004-0.207-0.004-0.44-0.025-0.698v0c0.451 0.948 0.395 1.843-0.168 2.686v0c-0.384 0.575-0.887 1.013-1.507 1.313-0.626 0.296-1.33 0.444-2.111 0.443-0.785 0.005-1.629-0.147-2.532-0.455-0.907-0.303-1.837-0.773-2.79-1.41v0c-0.354-0.237-0.699-0.488-1.034-0.753-0.337-0.275-0.655-0.555-0.953-0.838-0.298-0.283-0.573-0.563-0.825-0.841-0.248-0.283-0.455-0.552-0.621-0.806v0l-0.239 0.357-3.016-2.014z" fill="#ffdbe7" data-fill-palette-color="secondary"></path><path d="M81.108 265.426l0.761-1.919 3.245 1.287 4.41-11.117-3.245-1.287 0.766-1.929 17.869 7.088-1.859 4.687-2.699-1.071 1.094-2.757-9.101-3.61-1.878 4.735 6.031 2.392-0.595 1.501-6.031-2.393-1.937 4.882 9.101 3.61 1.097-2.767 2.699 1.07-1.859 4.687zM100.559 262.757l0.182-0.458 2.845 1.128 1.955-4.93 0.478 0.19-2.138 5.388zM91.624 259.156l1.26-3.176 7.727 3.065-0.182 0.457-7.249-2.875-1.078 2.718zM86.486 253.972l0.182-0.458 2.017 0.8-0.182 0.458zM89.093 265.538l1.318-3.323 6.021 2.389 0.692-1.744 0.477 0.189-0.873 2.202-6.022-2.388-1.136 2.864zM81.497 266.55l18.015 7.147 1.925-4.852 0.477 0.189-2.106 5.31-18.493-7.336z" fill="#ffdbe7" data-fill-palette-color="secondary"></path><path d="M112.162 269.65v0c0.143-0.904 0.472-1.737 0.988-2.497 0.515-0.753 1.174-1.385 1.976-1.895 0.802-0.51 1.726-0.874 2.772-1.091 1.052-0.209 2.178-0.219 3.379-0.029v0c1.008 0.159 1.895 0.434 2.661 0.824 0.772 0.398 1.464 0.896 2.077 1.495v0l0.18-1.139 2.744 0.433-0.625 3.955-2.619-0.413c-0.188-0.334-0.435-0.67-0.743-1.009-0.299-0.344-0.652-0.662-1.059-0.953-0.4-0.29-0.852-0.541-1.356-0.755-0.496-0.22-1.034-0.375-1.614-0.467v0c-0.739-0.117-1.447-0.108-2.126 0.025-0.673 0.141-1.278 0.389-1.815 0.743-0.536 0.347-0.984 0.789-1.345 1.327-0.354 0.538-0.585 1.149-0.692 1.832v0c-0.111 0.704-0.068 1.351 0.128 1.941 0.197 0.59 0.518 1.111 0.963 1.564 0.446 0.445 0.999 0.819 1.659 1.121 0.66 0.302 1.393 0.517 2.201 0.645v0c1.311 0.207 2.504 0.18 3.579-0.083 1.073-0.255 2.075-0.755 3.006-1.499v0l1.113 1.757c-1.09 0.854-2.288 1.432-3.596 1.735-1.3 0.304-2.751 0.33-4.352 0.077v0c-1.346-0.212-2.52-0.553-3.521-1.023-1.008-0.47-1.831-1.039-2.468-1.705-0.631-0.666-1.075-1.415-1.333-2.248-0.258-0.833-0.312-1.722-0.162-2.668zM126.109 270.769l0.075-0.476 2.91 0.459 0.681-4.317 0.508 0.08-0.757 4.794zM115.856 270.18v0c0.09-0.573 0.283-1.077 0.578-1.511 0.303-0.44 0.674-0.799 1.114-1.076 0.441-0.284 0.939-0.478 1.493-0.582 0.561-0.102 1.149-0.105 1.763-0.008v0c0.366 0.058 0.73 0.151 1.091 0.278 0.362 0.128 0.699 0.28 1.01 0.457 0.312 0.177 0.589 0.369 0.833 0.577 0.235 0.214 0.412 0.436 0.531 0.668v0c-0.467-0.357-0.978-0.664-1.531-0.921-0.561-0.258-1.217-0.447-1.97-0.566v0c-0.594-0.094-1.143-0.085-1.649 0.026-0.505 0.104-0.95 0.282-1.336 0.532-0.38 0.258-0.692 0.577-0.936 0.956-0.244 0.379-0.402 0.796-0.474 1.252v0c-0.071 0.449-0.064 0.856 0.02 1.223 0.084 0.367 0.238 0.71 0.463 1.028 0.219 0.318 0.502 0.61 0.849 0.877 0.353 0.275 0.758 0.533 1.214 0.776v0c-0.551-0.137-1.037-0.333-1.456-0.591-0.419-0.257-0.757-0.558-1.014-0.903-0.264-0.346-0.447-0.729-0.551-1.148-0.104-0.42-0.118-0.868-0.042-1.344zM113.142 275.27v0c0.36 0.361 0.774 0.699 1.241 1.013 0.467 0.314 0.974 0.596 1.522 0.845 0.555 0.25 1.136 0.466 1.744 0.647 0.607 0.188 1.228 0.332 1.863 0.432v0c0.766 0.121 1.528 0.178 2.287 0.17 0.758-0.008 1.476-0.075 2.154-0.201 0.686-0.132 1.324-0.318 1.913-0.558 0.591-0.246 1.105-0.544 1.542-0.892v0l0.32 0.39c-1.081 0.799-2.321 1.324-3.719 1.578-1.398 0.253-2.929 0.249-4.592-0.014v0c-0.69-0.109-1.369-0.266-2.038-0.471-0.667-0.211-1.282-0.464-1.843-0.757-0.562-0.294-1.054-0.626-1.477-0.998-0.417-0.363-0.722-0.758-0.917-1.184z" fill="#ffdbe7" data-fill-palette-color="secondary"></path><path d="M138.445 272.541v0c-0.042-0.942 0.122-1.838 0.49-2.686 0.368-0.849 0.902-1.596 1.601-2.243 0.699-0.646 1.55-1.17 2.554-1.571 0.997-0.401 2.102-0.628 3.317-0.682v0c1.278-0.056 2.426 0.061 3.446 0.352 1.013 0.298 1.882 0.732 2.607 1.301 0.718 0.577 1.277 1.269 1.676 2.077 0.407 0.814 0.631 1.707 0.674 2.677v0c0.041 0.935-0.123 1.81-0.492 2.624-0.363 0.806-0.898 1.512-1.607 2.117-0.715 0.605-1.578 1.094-2.589 1.468-1.019 0.367-2.16 0.578-3.424 0.634v0c-1.201 0.053-2.298-0.077-3.291-0.39-0.993-0.313-1.848-0.751-2.566-1.314-0.725-0.57-1.296-1.23-1.713-1.981-0.418-0.751-0.645-1.545-0.683-2.383zM140.717 277.886v0c0.858 0.571 1.8 0.994 2.826 1.271 1.027 0.283 2.179 0.397 3.456 0.341v0c1.187-0.052 2.321-0.263 3.403-0.633 1.075-0.369 2.017-0.886 2.828-1.552 0.803-0.665 1.435-1.469 1.897-2.413 0.462-0.937 0.667-1.995 0.615-3.175v0c-0.026-0.579-0.132-1.159-0.318-1.738-0.187-0.586-0.435-1.142-0.745-1.667-0.317-0.532-0.692-1.022-1.125-1.472-0.433-0.457-0.911-0.834-1.435-1.132v0c0.591 0.233 1.133 0.548 1.627 0.946 0.5 0.398 0.93 0.861 1.289 1.391 0.359 0.523 0.643 1.094 0.852 1.714 0.216 0.62 0.339 1.265 0.368 1.935v0c0.037 0.845-0.05 1.632-0.262 2.362-0.206 0.73-0.509 1.393-0.909 1.992-0.4 0.598-0.887 1.137-1.461 1.617-0.567 0.473-1.196 0.871-1.888 1.196-0.699 0.332-1.443 0.592-2.232 0.78-0.789 0.189-1.595 0.301-2.419 0.338v0c-0.691 0.031-1.353 0.007-1.986-0.07-0.633-0.084-1.223-0.215-1.77-0.394-0.546-0.179-1.043-0.405-1.488-0.679-0.445-0.267-0.82-0.586-1.123-0.958zM141.312 272.362v0c0.029 0.663 0.182 1.262 0.457 1.795 0.276 0.54 0.656 0.996 1.141 1.366 0.485 0.37 1.057 0.649 1.716 0.837 0.659 0.188 1.383 0.264 2.172 0.23v0c0.803-0.035 1.527-0.179 2.173-0.432 0.647-0.245 1.199-0.574 1.657-0.986 0.45-0.419 0.792-0.906 1.026-1.462 0.234-0.556 0.337-1.162 0.308-1.818v0c-0.029-0.649-0.185-1.254-0.468-1.815-0.284-0.561-0.665-1.048-1.145-1.461-0.487-0.412-1.061-0.733-1.722-0.962-0.66-0.223-1.381-0.317-2.163-0.283v0c-0.824 0.036-1.558 0.191-2.204 0.465-0.645 0.273-1.193 0.633-1.641 1.08-0.449 0.447-0.786 0.965-1.012 1.555-0.226 0.591-0.324 1.221-0.295 1.891zM142.215 272.375v0c-0.024-0.545 0.062-1.059 0.257-1.543 0.195-0.491 0.48-0.92 0.856-1.287 0.376-0.366 0.831-0.663 1.367-0.889 0.543-0.227 1.145-0.355 1.809-0.384v0c0.419-0.018 0.829 0.009 1.231 0.082 0.402 0.073 0.774 0.19 1.117 0.349 0.343 0.16 0.649 0.356 0.918 0.589 0.269 0.233 0.487 0.5 0.654 0.8v0c-0.588-0.492-1.198-0.842-1.83-1.052-0.625-0.217-1.325-0.309-2.1-0.275v0c-0.558 0.025-1.071 0.138-1.538 0.341-0.467 0.202-0.868 0.465-1.203 0.788-0.342 0.33-0.602 0.705-0.779 1.125-0.184 0.421-0.266 0.865-0.246 1.333v0c0.017 0.384 0.082 0.745 0.195 1.083 0.113 0.331 0.287 0.634 0.523 0.91 0.243 0.276 0.558 0.524 0.946 0.746 0.387 0.214 0.871 0.399 1.451 0.555v0c-0.518-0.012-0.994-0.103-1.428-0.273-0.434-0.163-0.811-0.387-1.132-0.674-0.321-0.294-0.574-0.636-0.759-1.026-0.185-0.398-0.288-0.83-0.309-1.298z" fill="#ffdbe7" data-fill-palette-color="secondary"></path><path d="M167.34 275.694l-0.572-1.853 2.714-0.838-2.462-7.972-2.714 0.838-0.646-2.094 5.368-1.657 0.572 1.853c0.15-0.39 0.357-0.776 0.619-1.157 0.263-0.381 0.581-0.735 0.956-1.063 0.365-0.332 0.784-0.633 1.256-0.903 0.472-0.27 0.992-0.493 1.56-0.669v0c1.162-0.359 2.226-0.442 3.192-0.25 0.968 0.198 1.826 0.702 2.572 1.509v0c0.183-0.495 0.426-0.976 0.729-1.442 0.3-0.473 0.656-0.908 1.067-1.306 0.404-0.395 0.867-0.747 1.386-1.053 0.513-0.305 1.073-0.551 1.681-0.739v0c0.848-0.262 1.654-0.375 2.418-0.34 0.757 0.037 1.454 0.231 2.089 0.583 0.637 0.359 1.206 0.886 1.705 1.58 0.497 0.687 0.908 1.555 1.232 2.604v0l1.326 4.296 2.715-0.838 0.572 1.853-7.472 2.307-0.572-1.853 2.103-0.649-0.983-3.185c-0.239-0.775-0.482-1.442-0.728-2.002-0.244-0.554-0.491-0.964-0.742-1.23v0c-0.514-0.551-1.08-0.881-1.699-0.99-0.612-0.111-1.279-0.055-1.999 0.168v0c-0.407 0.126-0.804 0.332-1.191 0.62-0.38 0.286-0.725 0.626-1.034 1.021-0.311 0.389-0.58 0.823-0.805 1.302-0.22 0.47-0.381 0.959-0.48 1.465v0c0.07 0.154 0.133 0.314 0.192 0.478 0.06 0.172 0.117 0.344 0.17 0.518v0l1.327 4.296 2.103-0.649 0.572 1.853-6.86 2.118-0.572-1.853 2.103-0.649-1.002-3.245c-0.206-0.668-0.421-1.256-0.644-1.765-0.228-0.5-0.443-0.88-0.647-1.139v0c-0.52-0.666-1.106-1.07-1.757-1.212-0.646-0.151-1.347-0.111-2.101 0.122v0c-0.407 0.126-0.798 0.33-1.171 0.614-0.375 0.277-0.72 0.606-1.033 0.988-0.305 0.387-0.568 0.812-0.791 1.275-0.223 0.464-0.386 0.942-0.49 1.435v0l1.664 5.388 2.103-0.649 0.572 1.853zM188.548 256.091v0c0.604-0.033 1.155 0.057 1.652 0.269 0.504 0.21 0.957 0.531 1.361 0.962 0.404 0.431 0.765 0.963 1.085 1.595 0.32 0.633 0.603 1.35 0.85 2.151v0l1.046 3.385-0.491 0.152-1.073-3.476c-0.223-0.721-0.487-1.375-0.792-1.96-0.305-0.586-0.645-1.095-1.02-1.528-0.375-0.433-0.782-0.779-1.22-1.038-0.439-0.26-0.904-0.43-1.398-0.512zM177.922 259.372v0c0.415-0.077 0.8-0.075 1.153 0.006 0.354 0.081 0.643 0.2 0.868 0.357v0l-0.249 0.439c-0.084-0.084-0.195-0.17-0.332-0.26-0.146-0.094-0.301-0.181-0.465-0.262-0.164-0.081-0.33-0.147-0.5-0.197-0.176-0.048-0.334-0.076-0.475-0.083zM183.425 267.886l-1.336-4.327c0.096-0.424 0.232-0.825 0.408-1.201 0.181-0.385 0.396-0.729 0.646-1.033 0.248-0.311 0.528-0.576 0.84-0.797 0.312-0.221 0.649-0.387 1.009-0.498v0c0.568-0.175 1.068-0.213 1.501-0.113 0.433 0.1 0.78 0.289 1.042 0.567v0c-0.311-0.109-0.664-0.172-1.057-0.189-0.393-0.018-0.85 0.054-1.371 0.215v0c-0.321 0.099-0.621 0.25-0.902 0.454-0.285 0.212-0.536 0.454-0.752 0.726-0.214 0.278-0.396 0.576-0.547 0.893-0.144 0.315-0.243 0.623-0.296 0.925v0l1.305 4.226zM172.798 271.167l-1.336-4.327c0.096-0.424 0.235-0.826 0.418-1.204 0.174-0.383 0.386-0.726 0.637-1.03 0.248-0.311 0.528-0.576 0.84-0.797 0.312-0.221 0.649-0.387 1.009-0.498v0c0.568-0.175 1.068-0.213 1.501-0.112 0.433 0.1 0.784 0.288 1.052 0.563v0c-0.318-0.107-0.674-0.169-1.067-0.186-0.393-0.018-0.847 0.053-1.361 0.212v0c-0.327 0.101-0.631 0.253-0.912 0.457-0.285 0.212-0.536 0.454-0.752 0.726-0.214 0.278-0.396 0.576-0.547 0.893-0.144 0.315-0.243 0.623-0.296 0.925v0l1.305 4.226zM165.462 266.982l-0.146-0.471 1.452-0.448 0.146 0.47zM190.21 269.575l7.622-2.353-0.625-2.023 0.501-0.155 0.77 2.494-8.122 2.508zM179.584 272.856l7.011-2.164-0.625-2.023 0.491-0.152 0.77 2.494-7.502 2.316zM168.347 276.326l7.621-2.353-0.624-2.023 0.491-0.152 0.77 2.494-8.113 2.505z" fill="#ffdbe7" data-fill-palette-color="secondary"></path><path d="M207.057 261.131l-1.104-1.595 2.336-1.616-4.748-6.861-2.336 1.617-1.247-1.802 4.62-3.197 1.104 1.595c0.026-0.417 0.106-0.847 0.242-1.29 0.136-0.442 0.333-0.876 0.591-1.301 0.248-0.427 0.557-0.84 0.926-1.24 0.369-0.4 0.798-0.769 1.286-1.107v0c1-0.692 1.989-1.092 2.968-1.2 0.983-0.102 1.952 0.119 2.908 0.664v0c0.026-0.528 0.112-1.059 0.26-1.595 0.144-0.541 0.352-1.064 0.624-1.566 0.267-0.499 0.601-0.973 1.004-1.422 0.397-0.445 0.858-0.848 1.381-1.21v0c0.73-0.505 1.464-0.856 2.203-1.054 0.733-0.193 1.456-0.217 2.168-0.072 0.716 0.15 1.417 0.481 2.102 0.992 0.681 0.506 1.334 1.21 1.958 2.112v0l2.559 3.698 2.336-1.617 1.104 1.595-6.43 4.45-1.103-1.595 1.809-1.253-1.896-2.74c-0.461-0.667-0.894-1.23-1.298-1.69-0.399-0.454-0.759-0.771-1.077-0.95v0c-0.656-0.37-1.295-0.514-1.918-0.432-0.617 0.079-1.236 0.333-1.857 0.763v0c-0.35 0.243-0.667 0.559-0.948 0.949-0.276 0.387-0.502 0.815-0.679 1.286-0.18 0.464-0.305 0.959-0.375 1.483-0.069 0.515-0.074 1.029-0.017 1.542v0c0.113 0.126 0.222 0.259 0.327 0.398 0.109 0.145 0.215 0.293 0.319 0.442v0l2.559 3.698 1.81-1.253 1.103 1.595-5.904 4.086-1.103-1.595 1.81-1.252-1.933-2.793c-0.398-0.575-0.779-1.071-1.145-1.489-0.368-0.408-0.688-0.705-0.961-0.89v0c-0.696-0.478-1.377-0.687-2.04-0.628-0.662 0.05-1.318 0.3-1.967 0.75v0c-0.35 0.243-0.661 0.555-0.932 0.938-0.275 0.377-0.504 0.795-0.687 1.253-0.174 0.46-0.298 0.945-0.371 1.455-0.073 0.509-0.084 1.014-0.034 1.515v0l3.209 4.637 1.81-1.253 1.104 1.595zM221.376 236.051v0c0.566-0.213 1.118-0.294 1.656-0.241 0.544 0.049 1.073 0.218 1.588 0.507 0.515 0.29 1.02 0.688 1.515 1.195 0.495 0.507 0.982 1.105 1.459 1.794v0l2.016 2.914-0.422 0.292-2.07-2.991c-0.43-0.621-0.878-1.164-1.345-1.631-0.468-0.467-0.945-0.85-1.434-1.15-0.488-0.3-0.98-0.507-1.476-0.622-0.496-0.115-0.992-0.138-1.487-0.067zM212.232 242.38v0c0.373-0.198 0.74-0.312 1.101-0.342 0.362-0.03 0.674-0.003 0.935 0.08v0l-0.105 0.493c-0.106-0.054-0.237-0.103-0.395-0.147-0.167-0.046-0.342-0.082-0.522-0.111-0.181-0.028-0.359-0.04-0.536-0.037-0.182 0.007-0.342 0.028-0.478 0.064zM220.043 248.841l-2.577-3.723c-0.037-0.434-0.028-0.856 0.028-1.268 0.057-0.422 0.158-0.815 0.305-1.18 0.143-0.371 0.33-0.708 0.561-1.013 0.231-0.304 0.502-0.564 0.812-0.779v0c0.488-0.338 0.954-0.524 1.398-0.56 0.443-0.035 0.831 0.041 1.164 0.227v0c-0.33-0.01-0.685 0.036-1.065 0.138-0.38 0.102-0.794 0.307-1.242 0.618v0c-0.276 0.191-0.517 0.426-0.724 0.704-0.208 0.289-0.374 0.595-0.498 0.919-0.12 0.33-0.204 0.668-0.253 1.016-0.042 0.344-0.044 0.668-0.004 0.972v0l2.518 3.637zM210.899 255.17l-2.577-3.723c-0.037-0.434-0.025-0.858 0.036-1.274 0.051-0.418 0.15-0.809 0.296-1.174 0.143-0.371 0.33-0.708 0.561-1.013 0.231-0.304 0.502-0.564 0.812-0.779v0c0.488-0.338 0.954-0.524 1.398-0.559 0.443-0.035 0.834 0.039 1.173 0.221v0c-0.335-0.006-0.693 0.042-1.074 0.143-0.38 0.102-0.791 0.306-1.233 0.612v0c-0.282 0.195-0.526 0.432-0.732 0.711-0.208 0.289-0.374 0.595-0.499 0.918-0.12 0.33-0.204 0.668-0.253 1.017-0.042 0.344-0.044 0.668-0.003 0.971v0l2.517 3.637zM202.642 253.389l-0.28-0.405 1.25-0.865 0.28 0.405zM227.023 248.408l6.559-4.539-1.205-1.741 0.431-0.298 1.485 2.146-6.99 4.838zM217.878 254.738l6.033-4.176-1.205-1.741 0.423-0.292 1.485 2.146-6.455 4.468zM208.208 261.431l6.559-4.54-1.205-1.741 0.422-0.292 1.486 2.146-6.982 4.832z" fill="#ffdbe7" data-fill-palette-color="secondary"></path><path d="M235.501 232.13v0c-0.691-0.6-1.241-1.3-1.649-2.098-0.403-0.794-0.622-1.65-0.656-2.569-0.03-0.924 0.139-1.887 0.51-2.889 0.376-0.997 0.994-1.992 1.855-2.984v0c0.816-0.939 1.666-1.668 2.551-2.186 0.895-0.519 1.802-0.828 2.72-0.927 0.924-0.105 1.846 0.006 2.766 0.333 0.92 0.327 1.82 0.872 2.701 1.637v0l-8.57 9.869c0.515 0.345 1.059 0.554 1.634 0.628 0.579 0.068 1.158 0.025 1.737-0.129 0.578-0.165 1.139-0.427 1.683-0.788 0.549-0.366 1.05-0.81 1.504-1.332v0c0.367-0.422 0.706-0.882 1.017-1.379 0.312-0.497 0.579-0.992 0.802-1.483 0.218-0.496 0.388-0.959 0.512-1.389 0.118-0.434 0.169-0.802 0.152-1.103v0l0.323-0.372 1.795-0.052c-0.007 1.169-0.279 2.363-0.818 3.58-0.538 1.217-1.309 2.403-2.313 3.558v0c-0.88 1.013-1.78 1.8-2.702 2.36-0.921 0.56-1.83 0.919-2.725 1.077-0.901 0.153-1.761 0.109-2.58-0.131-0.824-0.234-1.574-0.645-2.249-1.231zM239.22 229.974l8.337-9.601c-0.091-0.098-0.187-0.2-0.289-0.306-0.112-0.106-0.231-0.214-0.358-0.324v0c-0.554-0.481-1.135-0.884-1.742-1.208-0.603-0.329-1.217-0.571-1.841-0.724-0.621-0.159-1.245-0.234-1.874-0.225-0.638 0.01-1.258 0.106-1.859 0.287v0c0.54-0.281 1.116-0.475 1.727-0.582 0.607-0.102 1.234-0.099 1.881 0.008 0.651 0.103 1.318 0.321 2 0.655 0.678 0.339 1.36 0.806 2.045 1.401v0c0.047 0.041 0.111 0.096 0.19 0.165 0.075 0.074 0.157 0.155 0.248 0.243 0.096 0.092 0.189 0.187 0.28 0.284 0.091 0.098 0.18 0.198 0.266 0.301v0l-8.006 9.22c0.311 0.057 0.722 0.016 1.232-0.124 0.505-0.145 1.06-0.416 1.666-0.815v0c-0.284 0.327-0.587 0.596-0.909 0.807-0.321 0.221-0.651 0.388-0.99 0.5-0.339 0.113-0.679 0.169-1.021 0.169-0.341 0.009-0.669-0.035-0.983-0.131zM236.55 229.196l6.563-7.559c-0.54-0.284-1.078-0.469-1.614-0.554-0.541-0.091-1.071-0.078-1.587 0.037-0.512 0.11-1.011 0.316-1.495 0.618-0.484 0.302-0.937 0.695-1.358 1.181v0c-0.458 0.528-0.807 1.067-1.045 1.619-0.233 0.556-0.368 1.106-0.404 1.648-0.026 0.542 0.041 1.067 0.2 1.576 0.16 0.519 0.407 0.997 0.74 1.434zM237.292 227.494l-0.385 0.443c-0.327-0.7-0.419-1.442-0.275-2.224 0.143-0.783 0.512-1.517 1.107-2.203v0c0.243-0.28 0.503-0.531 0.78-0.754 0.271-0.227 0.551-0.41 0.838-0.549 0.292-0.144 0.58-0.241 0.863-0.291 0.284-0.05 0.556-0.049 0.818 0.001v0c-0.573 0.159-1.101 0.4-1.584 0.721-0.483 0.321-0.937 0.727-1.363 1.218v0c-0.49 0.565-0.805 1.161-0.944 1.791-0.138 0.639-0.09 1.255 0.145 1.847zM240.625 234.511v0c0.998-0.244 1.983-0.675 2.955-1.293 0.976-0.624 1.934-1.476 2.874-2.558v0c0.912-1.05 1.647-2.142 2.206-3.276 0.555-1.129 0.909-2.278 1.065-3.448v0l0.504-0.021c-0.159 1.334-0.523 2.563-1.093 3.688-0.574 1.13-1.303 2.204-2.188 3.223v0c-1.145 1.319-2.254 2.276-3.327 2.872-1.068 0.59-2.067 0.861-2.996 0.813z" fill="#ffdbe7" data-fill-palette-color="secondary"></path><path d="M257.087 214.427l-1.673-0.981 1.438-2.45-7.196-4.223-1.438 2.45-1.889-1.109 2.843-4.845 1.863 1.093c-0.163-0.412-0.284-0.855-0.362-1.331-0.08-0.485-0.1-0.99-0.058-1.517 0.042-0.527 0.147-1.064 0.315-1.613 0.168-0.549 0.414-1.098 0.736-1.647v0c0.095-0.163 0.219-0.366 0.369-0.609 0.157-0.24 0.319-0.461 0.487-0.663v0l2.187 1.284c-0.212 0.224-0.402 0.457-0.568 0.699-0.173 0.239-0.33 0.479-0.471 0.72v0c-0.347 0.591-0.582 1.206-0.707 1.846-0.122 0.65-0.124 1.288-0.006 1.917 0.118 0.628 0.358 1.227 0.72 1.796 0.359 0.575 0.856 1.089 1.489 1.542v0l3.092 1.814 2.361-4.022 1.672 0.981zM258.05 207.421l-1.419-0.833c-0.699-0.41-1.272-0.864-1.717-1.36-0.442-0.503-0.756-1.031-0.942-1.585-0.185-0.554-0.237-1.128-0.157-1.721 0.074-0.596 0.285-1.19 0.632-1.781v0c0.074-0.127 0.177-0.281 0.308-0.463 0.141-0.185 0.291-0.372 0.451-0.561 0.16-0.19 0.331-0.377 0.513-0.563 0.178-0.179 0.358-0.333 0.538-0.462v0l-2.631-1.543 0.26-0.443 3.183 1.867c-0.205 0.155-0.416 0.335-0.633 0.54-0.214 0.199-0.42 0.406-0.62 0.621-0.193 0.219-0.371 0.439-0.533 0.66-0.165 0.211-0.302 0.41-0.411 0.597v0c-0.318 0.542-0.509 1.075-0.572 1.596-0.073 0.524-0.025 1.03 0.142 1.518 0.162 0.484 0.441 0.947 0.837 1.391 0.394 0.434 0.895 0.829 1.504 1.186v0l1.527 0.896zM249.822 209.265l-0.425-0.249 0.77-1.311 0.424 0.249zM258.257 214.215l5.278-8.995-1.826-1.072 0.266-0.452 2.251 1.321-5.544 9.447z" fill="#ffdbe7" data-fill-palette-color="secondary"></path><path d="M262.39 191.528v0c-0.861-0.311-1.616-0.792-2.265-1.442-0.643-0.648-1.139-1.414-1.488-2.299-0.349-0.884-0.532-1.86-0.547-2.928-0.006-1.072 0.197-2.18 0.61-3.324v0c0.347-0.96 0.784-1.779 1.311-2.457 0.536-0.683 1.157-1.269 1.861-1.758v0l-1.085-0.391 0.944-2.613 3.766 1.361-0.901 2.494c-0.363 0.121-0.74 0.301-1.131 0.539-0.395 0.229-0.773 0.516-1.135 0.86-0.36 0.338-0.692 0.734-0.998 1.189-0.309 0.445-0.564 0.944-0.763 1.496v0c-0.254 0.703-0.38 1.401-0.377 2.093 0.012 0.688 0.14 1.329 0.386 1.923 0.239 0.592 0.589 1.115 1.049 1.571 0.462 0.449 1.018 0.791 1.668 1.026v0c0.67 0.242 1.314 0.322 1.931 0.24 0.617-0.082 1.189-0.299 1.717-0.65 0.522-0.354 0.993-0.826 1.415-1.417 0.421-0.591 0.771-1.271 1.048-2.04v0c0.451-1.249 0.649-2.425 0.595-3.529-0.048-1.102-0.349-2.18-0.904-3.236v0l1.936-0.761c0.632 1.231 0.974 2.518 1.024 3.859 0.053 1.334-0.196 2.764-0.746 4.288v0c-0.463 1.282-1.019 2.37-1.67 3.265-0.652 0.901-1.366 1.602-2.141 2.102-0.773 0.494-1.592 0.788-2.459 0.883-0.867 0.096-1.75-0.019-2.651-0.344zM266.125 178.043l-0.454-0.164 1.001-2.77-4.111-1.485 0.174-0.483 4.565 1.649zM263.609 188v0c-0.545-0.197-1.004-0.481-1.375-0.853-0.375-0.381-0.657-0.813-0.846-1.297-0.196-0.487-0.292-1.012-0.289-1.576 0.005-0.57 0.114-1.148 0.325-1.732v0c0.126-0.348 0.286-0.688 0.479-1.02 0.194-0.331 0.407-0.633 0.64-0.906 0.232-0.273 0.474-0.509 0.723-0.708 0.255-0.19 0.506-0.322 0.756-0.395v0c-0.439 0.391-0.836 0.835-1.193 1.329-0.36 0.502-0.669 1.111-0.928 1.827v0c-0.204 0.565-0.299 1.107-0.286 1.625 0.007 0.515 0.097 0.986 0.27 1.412 0.182 0.422 0.436 0.789 0.762 1.1 0.326 0.311 0.706 0.545 1.14 0.702v0c0.427 0.154 0.829 0.225 1.205 0.212 0.376-0.013 0.742-0.1 1.097-0.261 0.353-0.155 0.694-0.377 1.021-0.668 0.337-0.294 0.667-0.643 0.991-1.046v0c-0.238 0.516-0.523 0.955-0.855 1.318-0.332 0.363-0.691 0.638-1.078 0.825-0.389 0.194-0.8 0.302-1.232 0.325-0.432 0.022-0.874-0.048-1.327-0.213zM268.094 191.627v0c0.423-0.286 0.832-0.628 1.229-1.027 0.397-0.399 0.769-0.844 1.118-1.335 0.351-0.497 0.672-1.028 0.965-1.591 0.299-0.561 0.558-1.143 0.776-1.748v0c0.264-0.73 0.463-1.467 0.599-2.213 0.136-0.746 0.206-1.464 0.209-2.154 0-0.699-0.062-1.36-0.186-1.984-0.13-0.627-0.325-1.187-0.585-1.682v0l0.444-0.241c0.58 1.212 0.862 2.529 0.847 3.95-0.015 1.421-0.309 2.923-0.882 4.507v0c-0.237 0.657-0.52 1.295-0.846 1.912-0.334 0.615-0.698 1.171-1.093 1.668-0.395 0.496-0.814 0.917-1.258 1.261-0.435 0.341-0.881 0.566-1.337 0.677z" fill="#ffdbe7" data-fill-palette-color="secondary"></path></g></svg></g></svg></g></svg></g></svg></g><defs></defs></svg><rect width="280" height="280" fill="none" stroke="none" visibility="hidden"></rect></g></svg></g></svg>