<svg xmlns="http://www.w3.org/2000/svg" version="1.1" xmlns:xlink="http://www.w3.org/1999/xlink" xmlns:svgjs="http://svgjs.dev/svgjs" width="2000" height="449" viewBox="0 0 2000 449"><g transform="matrix(1,0,0,1,-1.2121212121212466,0.03897324680451675)"><svg viewBox="0 0 396 89" data-background-color="#ffffff" preserveAspectRatio="xMidYMid meet" height="449" width="2000" xmlns="http://www.w3.org/2000/svg" xmlns:xlink="http://www.w3.org/1999/xlink"><g id="tight-bounds" transform="matrix(1,0,0,1,0.2400000000000091,-0.007725209277509748)"><svg viewBox="0 0 395.52 82.99851557162594" height="82.99851557162594" width="395.52"><g><svg viewBox="0 0 514.6053011190518 107.98815761066666" height="82.99851557162594" width="395.52"><g transform="matrix(1,0,0,1,0,30.490750410271602)"><svg viewBox="0 0 395.52 47.00665679012346" height="47.00665679012346" width="395.52"><g id="textblocktransform"><svg viewBox="0 0 395.52 47.00665679012346" height="47.00665679012346" width="395.52" id="textblock"><g><svg viewBox="0 0 395.52 47.00665679012346" height="47.00665679012346" width="395.52"><g transform="matrix(1,0,0,1,0,0)"><svg width="395.52" viewBox="2.2 -35.5 303.72 36.1" height="47.00665679012346" data-palette-color="#a437db"><path d="M3.15 0.2L3.15 0.2 2.2 0.2Q2.4-2.05 4.85-13.03 7.3-24 7.9-29.45L7.9-29.45Q7.9-30.25 7.38-31.38 6.85-32.5 6.3-33.2L6.3-33.2 5.8-33.9 5.95-34.65Q8.75-35.5 15.6-35.5L15.6-35.5Q16.25-34.3 16.25-33.15 16.25-32 16.05-30.3L16.05-30.3Q22.3-35.5 26.25-35.5L26.25-35.5Q28.85-35.5 30.45-33.8 32.05-32.1 32.05-29.05 32.05-26 29.93-17.43 27.8-8.85 27.8-5.45L27.8-5.45Q27.8-4 28.3-4L28.3-4Q28.75-4 30.8-5L30.8-5 31.45-5.3 32.45-3.45Q30.35-1.65 28.1-0.53 25.85 0.6 24.03 0.6 22.2 0.6 21.05-0.73 19.9-2.05 19.9-4.33 19.9-6.6 21.98-15.65 24.05-24.7 24.05-27.2 24.05-29.7 22.1-29.7L22.1-29.7Q19.15-29.7 15.4-26.75L15.4-26.75Q14.85-24.1 13.35-17.9L13.35-17.9Q10.05-4.25 10.05-0.8L10.05-0.8Q8.1 0.2 3.15 0.2ZM34.35-8.65L34.35-8.65Q34.35-14.9 38.12-18.53 41.9-22.15 46.7-22.15L46.7-22.15Q49.65-22.15 51.55-20.7 53.45-19.25 53.45-16.82 53.45-14.4 52.22-12.75 51-11.1 49.25-10.2L49.25-10.2Q45.7-8.45 42.75-8L42.75-8 41.55-7.85Q41.9-3.15 45.4-3.15L45.4-3.15Q46.6-3.15 47.95-3.75 49.3-4.35 50.05-4.95L50.05-4.95 50.8-5.55 52-3.95Q51.6-3.4 50.4-2.5 49.2-1.6 48.15-1L48.15-1Q45.25 0.6 41.8 0.6 38.35 0.6 36.35-1.85 34.35-4.3 34.35-8.65ZM41.5-10.3Q44.05-10.75 45.55-12.45 47.05-14.15 47.05-16.85 47.05-19.55 45.45-19.55L45.45-19.55Q43.55-19.55 42.52-16.32 41.5-13.1 41.5-10.3L41.5-10.3ZM70.45-6.55L70.45-6.55Q70.45-3.4 67.67-1.4 64.9 0.6 61.35 0.6 57.8 0.6 55.72-0.9 53.65-2.4 53.65-3.55L53.65-3.55Q53.65-4.25 55.4-5.83 57.15-7.4 58.35-7.75L58.35-7.75Q60.85-5.9 62.45-1.9L62.45-1.9Q64.3-2.05 64.3-3.65L64.3-3.65Q64.3-5.95 60.25-10.18 56.2-14.4 56.2-16.9 56.2-19.4 58.45-20.78 60.7-22.15 63.87-22.15 67.05-22.15 68.65-21.03 70.25-19.9 70.25-17.98 70.25-16.05 67.2-12.65L67.2-12.65Q67.55-12.3 68.1-11.73 68.65-11.15 69.55-9.55 70.45-7.95 70.45-6.55ZM65.65-14.4Q67.75-16.2 67.75-17.95 67.75-19.7 65.35-19.7L65.35-19.7Q64.2-19.7 63.45-19.23 62.7-18.75 62.7-18.15L62.7-18.15Q62.7-17.05 64.9-15.05L64.9-15.05 65.65-14.4ZM88.19-6.55L88.19-6.55Q88.19-3.4 85.42-1.4 82.64 0.6 79.09 0.6 75.54 0.6 73.47-0.9 71.39-2.4 71.39-3.55L71.39-3.55Q71.39-4.25 73.14-5.83 74.89-7.4 76.09-7.75L76.09-7.75Q78.59-5.9 80.19-1.9L80.19-1.9Q82.04-2.05 82.04-3.65L82.04-3.65Q82.04-5.95 77.99-10.18 73.94-14.4 73.94-16.9 73.94-19.4 76.19-20.78 78.44-22.15 81.62-22.15 84.79-22.15 86.39-21.03 87.99-19.9 87.99-17.98 87.99-16.05 84.94-12.65L84.94-12.65Q85.29-12.3 85.84-11.73 86.39-11.15 87.29-9.55 88.19-7.95 88.19-6.55ZM83.39-14.4Q85.49-16.2 85.49-17.95 85.49-19.7 83.09-19.7L83.09-19.7Q81.94-19.7 81.19-19.23 80.44-18.75 80.44-18.15L80.44-18.15Q80.44-17.05 82.64-15.05L82.64-15.05 83.39-14.4ZM101.44 0.6L101.44 0.6Q97.94 0.6 94.74-1.4L94.74-1.4Q93.14-2.4 92.12-4.2 91.09-6 91.09-8.35L91.09-8.35Q91.09-12.8 94.04-15.6 96.99-18.4 101.14-18.85L101.14-18.85Q98.34-19.6 96.67-21.45 94.99-23.3 94.99-26.15L94.99-26.15Q94.99-30.45 98.37-32.98 101.74-35.5 106.09-35.5 110.44-35.5 113.34-33.65 116.24-31.8 116.24-28.65L116.24-28.65Q116.24-27.55 115.87-26.5 115.49-25.45 115.09-25L115.09-25 114.74-24.5Q113.14-24.5 111.22-25.05 109.29-25.6 108.39-26.45L108.39-26.45 108.99-31.6Q108.24-32.35 106.47-32.35 104.69-32.35 103.67-30.53 102.64-28.7 102.64-26.35 102.64-24 103.19-22.8 103.74-21.6 104.74-20.95L104.74-20.95Q106.29-19.95 108.39-19.55L108.39-19.55 107.99-16.8Q104.39-16.8 101.74-14.68 99.09-12.55 99.09-9.05L99.09-9.05Q99.09-6.85 100.52-5.43 101.94-4 104.19-4L104.19-4Q108.29-4 112.59-8.15L112.59-8.15 114.59-6.3Q108.79 0.6 101.44 0.6ZM127.74-19.65L127.74-19.65Q125.74-19.65 124.54-16.32 123.34-13 123.34-9.2L123.34-9.2Q123.34-3.2 127.04-3.2L127.04-3.2Q128.24-3.2 129.59-3.78 130.94-4.35 131.74-4.9L131.74-4.9 132.49-5.5 133.64-3.95Q133.24-3.4 132.04-2.5 130.84-1.6 129.79-1 128.74-0.4 127.09 0.1 125.44 0.6 123.84 0.6L123.84 0.6Q119.94 0.6 117.99-1.95 116.04-4.5 116.04-8.8L116.04-8.8Q116.04-14.75 119.31-18.45 122.59-22.15 127.74-22.15L127.74-22.15Q131.09-22.15 133.06-20.63 135.04-19.1 135.04-16.88 135.04-14.65 133.64-13.05L133.64-13.05Q132.39-13.05 130.74-13.6 129.09-14.15 128.24-14.95L128.24-14.95 128.99-19.35Q128.54-19.65 127.74-19.65ZM143.09 0.6L143.09 0.6Q139.64 0.6 137.69-1.83 135.74-4.25 135.74-8.6L135.74-8.6Q135.74-14.15 138.71-18.15 141.69-22.15 146.94-22.15L146.94-22.15 148.74-22.05Q149.59-22.5 150.64-22.5L150.64-22.5Q154.59-22.5 154.59-15.05L154.59-15.05Q156.64-15.15 158.74-15.6L158.74-15.6 159.54-15.8 159.84-13.85Q158.19-13.15 155.39-12.6L155.39-12.6 154.39-12.4Q153.44-7.15 150.53-3.28 147.64 0.6 143.09 0.6ZM145.78-3.7L145.78-3.7Q147.89-3.7 149.56-6.4 151.24-9.1 151.89-12.1L151.89-12.1Q146.53-12.1 146.53-16.1L146.53-16.1Q146.53-17.7 147.19-19.1L147.19-19.1 147.44-19.6Q147.24-19.7 146.94-19.7 146.64-19.7 146.49-19.6L146.49-19.6Q145.24-18.8 144.14-15.85 143.03-12.9 143.03-9.1L143.03-9.1Q143.03-3.7 145.78-3.7ZM156.98 0.15L156.98 0.15 156.03 0.15Q156.03-2.2 157.46-8.85 158.88-15.5 158.88-16.4L158.88-16.4Q158.88-18.05 157.48-19.9L157.48-19.9 157.03-20.5 157.08-21.15Q159.78-21.9 165.73-21.9L165.73-21.9Q166.43-20.95 166.43-18.8L166.43-18.8Q170.93-22.15 173.58-22.15L173.58-22.15Q176.93-22.15 177.53-18.7L177.53-18.7Q178.88-19.8 181.06-20.98 183.23-22.15 184.96-22.15 186.68-22.15 187.83-21.03 188.98-19.9 188.98-17.9 188.98-15.9 187.88-11.3 186.78-6.7 186.78-5.13 186.78-3.55 187.23-3.55L187.23-3.55Q187.53-3.55 189.28-4.5L189.28-4.5 189.83-4.8 190.73-3.05Q189.43-1.75 187.21-0.58 184.98 0.6 183.28 0.6L183.28 0.6Q179.53 0.6 179.53-3.65L179.53-3.65Q179.53-5.2 180.61-9.88 181.68-14.55 181.68-15.98 181.68-17.4 180.83-17.4L180.83-17.4Q179.38-17.4 177.53-16.3L177.53-16.3Q177.43-15.3 176.16-9.5 174.88-3.7 174.88-0.5L174.88-0.5Q173.43 0.15 168.08 0.15L168.08 0.15Q167.98-0.4 167.98-2.5 167.98-4.6 169.16-9.65 170.33-14.7 170.33-16.05 170.33-17.4 169.38-17.4L169.38-17.4Q167.88-17.4 166.08-16.2L166.08-16.2Q165.98-15.75 165.08-11.8L165.08-11.8Q163.28-3.9 163.28-0.55L163.28-0.55Q161.53 0.15 156.98 0.15ZM193.68 0.15L193.68 0.15 192.73 0.15Q192.73-2.2 194.16-8.85 195.58-15.5 195.58-16.4L195.58-16.4Q195.58-18.05 194.18-19.9L194.18-19.9 193.73-20.5 193.78-21.15Q196.48-21.9 202.43-21.9L202.43-21.9Q203.13-20.95 203.13-18.8L203.13-18.8Q207.63-22.15 210.28-22.15L210.28-22.15Q213.63-22.15 214.23-18.7L214.23-18.7Q215.58-19.8 217.76-20.98 219.93-22.15 221.66-22.15 223.38-22.15 224.53-21.03 225.68-19.9 225.68-17.9 225.68-15.9 224.58-11.3 223.48-6.7 223.48-5.13 223.48-3.55 223.93-3.55L223.93-3.55Q224.23-3.55 225.98-4.5L225.98-4.5 226.53-4.8 227.43-3.05Q226.13-1.75 223.91-0.58 221.68 0.6 219.98 0.6L219.98 0.6Q216.23 0.6 216.23-3.65L216.23-3.65Q216.23-5.2 217.31-9.88 218.38-14.55 218.38-15.98 218.38-17.4 217.53-17.4L217.53-17.4Q216.08-17.4 214.23-16.3L214.23-16.3Q214.13-15.3 212.86-9.5 211.58-3.7 211.58-0.5L211.58-0.5Q210.13 0.15 204.78 0.15L204.78 0.15Q204.68-0.4 204.68-2.5 204.68-4.6 205.86-9.65 207.03-14.7 207.03-16.05 207.03-17.4 206.08-17.4L206.08-17.4Q204.58-17.4 202.78-16.2L202.78-16.2Q202.68-15.75 201.78-11.8L201.78-11.8Q199.98-3.9 199.98-0.55L199.98-0.55Q198.23 0.15 193.68 0.15ZM228.83-8.65L228.83-8.65Q228.83-14.9 232.6-18.53 236.38-22.15 241.18-22.15L241.18-22.15Q244.13-22.15 246.03-20.7 247.93-19.25 247.93-16.82 247.93-14.4 246.7-12.75 245.48-11.1 243.73-10.2L243.73-10.2Q240.18-8.45 237.23-8L237.23-8 236.03-7.85Q236.38-3.15 239.88-3.15L239.88-3.15Q241.08-3.15 242.43-3.75 243.78-4.35 244.53-4.95L244.53-4.95 245.28-5.55 246.48-3.95Q246.08-3.4 244.88-2.5 243.68-1.6 242.63-1L242.63-1Q239.73 0.6 236.28 0.6 232.83 0.6 230.83-1.85 228.83-4.3 228.83-8.65ZM235.98-10.3Q238.53-10.75 240.03-12.45 241.53-14.15 241.53-16.85 241.53-19.55 239.93-19.55L239.93-19.55Q238.03-19.55 237-16.32 235.98-13.1 235.98-10.3L235.98-10.3ZM249.98 0.15L249.98 0.15 249.63 0.15Q249.53-0.25 249.53-1.68 249.53-3.1 250.88-9.35 252.23-15.6 252.23-16.5L252.23-16.5Q252.23-18.05 250.83-19.9L250.83-19.9 250.38-20.5 250.43-21.15Q253.13-21.9 259.08-21.9L259.08-21.9Q259.68-20.6 259.68-18.25L259.68-18.25Q260.23-19.15 261.98-20.65 263.73-22.15 265.58-22.15L265.58-22.15Q268.28-22.15 268.28-17.45L268.28-17.45Q268.03-17.15 267.6-16.68 267.18-16.2 265.9-15.35 264.63-14.5 263.43-14.3L263.43-14.3Q263.38-14.3 262.58-15.65 261.78-17 261.38-17L261.38-17Q260.13-16.55 259.18-15.5L259.18-15.5Q256.88-5.15 256.88-2.1L256.88-2.1Q256.88-1 256.93-0.55L256.93-0.55Q255.18 0.15 249.98 0.15ZM278.67-19.65L278.67-19.65Q276.67-19.65 275.47-16.32 274.27-13 274.27-9.2L274.27-9.2Q274.27-3.2 277.97-3.2L277.97-3.2Q279.17-3.2 280.52-3.78 281.87-4.35 282.67-4.9L282.67-4.9 283.42-5.5 284.57-3.95Q284.17-3.4 282.97-2.5 281.77-1.6 280.72-1 279.67-0.4 278.02 0.1 276.37 0.6 274.77 0.6L274.77 0.6Q270.87 0.6 268.92-1.95 266.97-4.5 266.97-8.8L266.97-8.8Q266.97-14.75 270.25-18.45 273.52-22.15 278.67-22.15L278.67-22.15Q282.02-22.15 284-20.63 285.97-19.1 285.97-16.88 285.97-14.65 284.57-13.05L284.57-13.05Q283.32-13.05 281.67-13.6 280.02-14.15 279.17-14.95L279.17-14.95 279.92-19.35Q279.47-19.65 278.67-19.65ZM286.82-8.65L286.82-8.65Q286.82-14.9 290.6-18.53 294.37-22.15 299.17-22.15L299.17-22.15Q302.12-22.15 304.02-20.7 305.92-19.25 305.92-16.82 305.92-14.4 304.7-12.75 303.47-11.1 301.72-10.2L301.72-10.2Q298.17-8.45 295.22-8L295.22-8 294.02-7.85Q294.37-3.15 297.87-3.15L297.87-3.15Q299.07-3.15 300.42-3.75 301.77-4.35 302.52-4.95L302.52-4.95 303.27-5.55 304.47-3.95Q304.07-3.4 302.87-2.5 301.67-1.6 300.62-1L300.62-1Q297.72 0.6 294.27 0.6 290.82 0.6 288.82-1.85 286.82-4.3 286.82-8.65ZM293.97-10.3Q296.52-10.75 298.02-12.45 299.52-14.15 299.52-16.85 299.52-19.55 297.92-19.55L297.92-19.55Q296.02-19.55 295-16.32 293.97-13.1 293.97-10.3L293.97-10.3Z" opacity="1" transform="matrix(1,0,0,1,0,0)" fill="#a437db" class="wordmark-text-0" data-fill-palette-color="primary" id="text-0"></path></svg></g></svg></g></svg></g></svg></g><g transform="matrix(1,0,0,1,406.61714350838514,0)"><svg viewBox="0 0 107.98815761066666 107.98815761066666" height="107.98815761066666" width="107.98815761066666"><g><svg></svg></g><g id="icon-0"><svg viewBox="0 0 107.98815761066666 107.98815761066666" height="107.98815761066666" width="107.98815761066666"><g><rect width="98.1892321978469" height="98.1892321978469" x="4.899462706409878" y="4.899462706409878" fill="#a437db" data-fill-palette-color="accent"></rect><rect width="98.1892321978469" height="98.1892321978469" x="2.6645352591003757e-15" y="2.6645352591003757e-15" fill="#a437db" opacity="0.5" data-fill-palette-color="accent"></rect></g><g transform="matrix(1,0,0,1,13.99846487545679,14.944015653798687)"><svg viewBox="0 0 79.99122785975308 78.10012630306929" height="78.10012630306929" width="79.99122785975308"><g><svg xmlns="http://www.w3.org/2000/svg" data-name="Layer 1" viewBox="0.4553107081304254 1.752859402991949 98.8446913118052 96.50786820493384" x="0" y="0" height="78.10012630306929" width="79.99122785975308" class="icon-cg-0" data-fill-palette-color="quaternary" id="cg-0"><path d="M71.28 6.32l-5.75 12a3.19 3.19 0 1 1-5.76-2.75l5.75-12a3.19 3.19 0 1 1 5.76 2.75Zm2.34 19.87l9.54-8.84a3.24 3.24 0 0 0-4.4-4.75l-9.54 8.84a3.24 3.24 0 0 0 4.4 4.75Zm5.1 9.87l12.44-4.82a3.19 3.19 0 1 0-2.31-6L76.41 30.1a3.19 3.19 0 0 0 2.31 6ZM1.62 76.64a3.44 3.44 0 1 1 5-4.68l0.77 0.83L38.76 13.51l-2-2.15a3.44 3.44 0 1 1 5-4.68L75.51 43.09l-1.14 0A30.3 30.3 0 0 0 44.15 71.77l-9.32 4.05 1.49 1.61a7.6 7.6 0 0 0 8.39 1.88 30 30 0 0 0 2.14 6.56 14.5 14.5 0 0 1-15.57-3.76l-3.13-3.38L17.31 83.44l1.18 1.28a3.44 3.44 0 0 1-5 4.68Zm16.09-6.16L48.77 31.81a1.94 1.94 0 0 0-0.09-2.54l-5.54-6a1.18 1.18 0 0 0-1.9 0.25L16.77 69.86A0.57 0.57 0 0 0 17.71 70.48ZM99.3 73.32A24.93 24.93 0 1 1 74.37 48.4 25 25 0 0 1 99.3 73.32ZM61.83 77.69a41.86 41.86 0 0 1 0-8.74h-6a18.43 18.43 0 0 0 0 8.74Zm3.84 12.57a27.55 27.55 0 0 1-3.13-8.17H57.46A19.17 19.17 0 0 0 65.67 90.26Zm0-33.88a19.17 19.17 0 0 0-8.21 8.17h5.08A27.56 27.56 0 0 1 65.67 56.38Zm6.5 25.71H67.05c1.14 4.47 3.07 7.7 5.12 9.08Zm0-13.14H66.25a38.08 38.08 0 0 0 0 8.74h5.92Zm0-13.48c-2.05 1.38-4 4.62-5.12 9.08h5.12Zm10.9 0.91a27.56 27.56 0 0 1 3.13 8.17h5.08A19.17 19.17 0 0 0 83.07 56.38Zm-6.5 8.17h5.12c-1.14-4.47-3.07-7.7-5.12-9.08Zm5.12 17.54H76.57v9.08C78.62 89.79 80.55 86.56 81.69 82.09Zm1-8.77A38.44 38.44 0 0 0 82.49 69H76.57v8.74h5.92A38.45 38.45 0 0 0 82.74 73.32Zm8.54 8.77H86.2a27.55 27.55 0 0 1-3.13 8.17A19.17 19.17 0 0 0 91.28 82.09ZM92.91 69h-6a41.86 41.86 0 0 1 0 8.74h6a18.43 18.43 0 0 0 0-8.74Z" fill="#ffffff" data-fill-palette-color="quaternary"></path></svg></g></svg></g></svg></g></svg></g></svg></g><defs></defs></svg><rect width="395.52" height="82.99851557162594" fill="none" stroke="none" visibility="hidden"></rect></g></svg></g></svg>